<?xml version="1.0" encoding="UTF-8" standalone="no"?>
<svg
   xmlns:dc="http://purl.org/dc/elements/1.1/"
   xmlns:cc="http://creativecommons.org/ns#"
   xmlns:rdf="http://www.w3.org/1999/02/22-rdf-syntax-ns#"
   xmlns:svg="http://www.w3.org/2000/svg"
   xmlns="http://www.w3.org/2000/svg"
   xmlns:sodipodi="http://sodipodi.sourceforge.net/DTD/sodipodi-0.dtd"
   xmlns:inkscape="http://www.inkscape.org/namespaces/inkscape"
   width="670"
   height="314"
   viewBox="0 0 670 314"
   preserveAspectRatio="xMidYMid meet"
   id="svg2"
   version="1.1"
   inkscape:version="0.91 r13725"
   sodipodi:docname="alttaki.svg"
   inkscape:export-filename="C:\Users\Simsar\Desktop\alttaki.png"
   inkscape:export-xdpi="600"
   inkscape:export-ydpi="600">
  <metadata
     id="metadata67">
    <rdf:RDF>
      <cc:Work
         rdf:about="">
        <dc:format>image/svg+xml</dc:format>
        <dc:type
           rdf:resource="http://purl.org/dc/dcmitype/StillImage" />
        <dc:title />
      </cc:Work>
    </rdf:RDF>
  </metadata>
  <sodipodi:namedview
     pagecolor="#ffffff"
     bordercolor="#666666"
     borderopacity="1"
     objecttolerance="10"
     gridtolerance="10"
     guidetolerance="10"
     inkscape:pageopacity="0"
     inkscape:pageshadow="2"
     inkscape:window-width="1920"
     inkscape:window-height="1017"
     id="namedview65"
     showgrid="false"
     fit-margin-top="0"
     fit-margin-left="0"
     fit-margin-right="0"
     fit-margin-bottom="0"
     inkscape:zoom="1.4142136"
     inkscape:cx="369.39365"
     inkscape:cy="190.68376"
     inkscape:window-x="-8"
     inkscape:window-y="-8"
     inkscape:window-maximized="1"
     inkscape:current-layer="svg2" />
  <defs
     id="svgEditorDefs">
    <marker
       id="arrow15-12-left"
       markerHeight="12"
       markerUnits="strokeWidth"
       markerWidth="15"
       orient="auto"
       refX="3"
       refY="0"
       viewBox="0 -5 20 20">
      <path
         d="M 15,-5 0,0 15,5 Z"
         id="path6"
         inkscape:connector-curvature="0"
         style="fill:#000000" />
    </marker>
    <marker
       id="arrow8-6-right"
       markerHeight="6"
       markerUnits="strokeWidth"
       markerWidth="8"
       orient="auto"
       refX="-3"
       refY="0"
       viewBox="-15 -5 20 20">
      <path
         d="M -15,-5 0,0 -15,5 Z"
         id="path9"
         inkscape:connector-curvature="0"
         style="fill:#000000" />
    </marker>
    <marker
       id="arrow20-16-left"
       markerHeight="16"
       markerUnits="strokeWidth"
       markerWidth="20"
       orient="auto"
       refX="3"
       refY="0"
       viewBox="0 -5 20 20">
      <path
         d="M 15,-5 0,0 15,5 Z"
         id="path12"
         inkscape:connector-curvature="0"
         style="fill:#000000" />
    </marker>
    <marker
       id="arrow10-8-left"
       markerHeight="8"
       markerUnits="strokeWidth"
       markerWidth="10"
       orient="auto"
       refX="3"
       refY="0"
       viewBox="0 -5 20 20">
      <path
         d="M 15,-5 0,0 15,5 Z"
         id="path15"
         inkscape:connector-curvature="0"
         style="fill:#000000" />
    </marker>
    <marker
       id="arrow8-6-left"
       markerHeight="6"
       markerUnits="strokeWidth"
       markerWidth="8"
       orient="auto"
       refX="3"
       refY="0"
       viewBox="0 -5 20 20">
      <path
         d="M 15,-5 0,0 15,5 Z"
         id="path18"
         inkscape:connector-curvature="0"
         style="fill:#000000" />
    </marker>
    <marker
       id="arrow20-16-right"
       markerHeight="16"
       markerUnits="strokeWidth"
       markerWidth="20"
       orient="auto"
       refX="-3"
       refY="0"
       viewBox="-15 -5 20 20">
      <path
         d="M -15,-5 0,0 -15,5 Z"
         id="path21"
         inkscape:connector-curvature="0"
         style="fill:#000000" />
    </marker>
    <marker
       id="arrow10-8-right"
       markerHeight="8"
       markerUnits="strokeWidth"
       markerWidth="10"
       orient="auto"
       refX="-3"
       refY="0"
       viewBox="-15 -5 20 20">
      <path
         d="M -15,-5 0,0 -15,5 Z"
         id="path24"
         inkscape:connector-curvature="0"
         style="fill:#000000" />
    </marker>
    <marker
       id="square10"
       markerHeight="10"
       markerUnits="strokeWidth"
       markerWidth="10"
       orient="auto"
       refX="0"
       refY="0"
       viewBox="-5 -5 10 10">
      <rect
         height="10"
         style="fill:#000000;stroke:none"
         width="10"
         x="-5"
         y="-5"
         id="rect27" />
    </marker>
    <marker
       id="circle8"
       markerHeight="8"
       markerUnits="strokeWidth"
       markerWidth="8"
       orient="auto"
       refX="0"
       refY="0"
       viewBox="-5 -5 10 10">
      <circle
         cx="0"
         cy="0"
         r="5"
         id="circle30"
         style="fill:#000000" />
    </marker>
    <marker
       id="square8"
       markerHeight="8"
       markerUnits="strokeWidth"
       markerWidth="8"
       orient="auto"
       refX="0"
       refY="0"
       viewBox="-5 -5 10 10">
      <rect
         height="10"
         style="fill:#000000;stroke:none"
         width="10"
         x="-5"
         y="-5"
         id="rect33" />
    </marker>
    <marker
       id="circle6"
       markerHeight="6"
       markerUnits="strokeWidth"
       markerWidth="6"
       orient="auto"
       refX="0"
       refY="0"
       viewBox="-5 -5 10 10">
      <circle
         cx="0"
         cy="0"
         r="5"
         style="fill:#000000;stroke:none"
         id="circle36" />
    </marker>
    <marker
       id="square6"
       markerHeight="6"
       markerUnits="strokeWidth"
       markerWidth="6"
       orient="auto"
       refX="0"
       refY="0"
       viewBox="-5 -5 10 10">
      <rect
         height="10"
         width="10"
         x="-5"
         y="-5"
         id="rect39"
         style="fill:#000000" />
    </marker>
    <marker
       id="circle4"
       markerHeight="4"
       markerUnits="strokeWidth"
       markerWidth="4"
       orient="auto"
       refX="0"
       refY="0"
       viewBox="-5 -5 10 10">
      <circle
         cx="0"
         cy="0"
         r="5"
         style="fill:#000000;stroke:none"
         id="circle42" />
    </marker>
    <marker
       id="arrow15-12-right"
       markerHeight="12"
       markerUnits="strokeWidth"
       markerWidth="15"
       orient="auto"
       refX="-0.14285718"
       refY="9.9920072e-016"
       viewBox="-15 -5 20 20">
      <path
         d="M -15,-5 0,0 -15,5 Z"
         id="path45"
         inkscape:connector-curvature="0"
         style="fill:#000000" />
    </marker>
  </defs>
  <rect
     id="svgEditorBackground"
     x="0"
     y="-426"
     width="670"
     height="740"
     style="fill:none;stroke:none" />
  <line
     id="e1_line"
     x1="109.90262"
     y1="23.028259"
     x2="626.73236"
     y2="286.02618"
     style="fill:none;stroke:#000000;stroke-width:2.27524066px" />
  <path
     d="M 514.79227,283.8526 C 375.06564,117.21482 376.65345,118.66385 17.810069,257.77017"
     style="fill:none;stroke:#000000;stroke-width:2.27524066px;marker-end:url(#arrow15-12-right)"
     id="e49_arc3"
     inkscape:connector-curvature="0" />
  <line
     id="e123_line"
     x1="400.47046"
     y1="172.27777"
     x2="46.390518"
     y2="175.17578"
     style="fill:none;stroke:#000000;stroke-width:1.51682699px;stroke-dasharray:6.06730813" />
  <line
     id="e170_line"
     x1="295.9613"
     y1="284.14386"
     x2="249.91502"
     y2="175.1048"
     style="fill:none;stroke:#000000;stroke-width:2.27524066px;marker-end:url(#arrow15-12-right)" />
  <text
     x="330.17999"
     y="-87.299011"
     id="e285_texte"
     style="font-style:italic;font-size:14px;font-family:'Times New Roman';fill:#000000" />
  <text
     x="339.42999"
     y="-80.049011"
     id="e300_texte"
     style="font-size:20px;font-family:Arial;fill:#000000" />
  <text
     x="198.67999"
     y="-46.049011"
     id="e331_texte"
     style="font-size:20px;font-family:Arial;fill:#000000" />
  <text
     x="95"
     y="-346"
     id="e734_texte"
     style="font-size:20px;font-family:Arial;fill:#000000" />
  <text
     x="125"
     y="-342"
     id="e749_texte"
     style="font-size:20px;font-family:Arial;fill:#000000" />
  <path
     style="fill:#000000"
     d="m 45.5102,277.25174 c -0.07645,-0.0418 -0.153054,-0.12907 -0.188851,-0.21509 -0.04869,-0.11699 -0.03951,-0.49371 0.0189,-0.7757 0.0094,-0.0454 0.04238,-0.20506 0.07329,-0.35484 0.03091,-0.14977 0.06314,-0.29831 0.07163,-0.33008 0.0085,-0.0318 0.02844,-0.11347 0.04434,-0.18155 0.04894,-0.20953 0.08272,-0.34646 0.13843,-0.56114 0.02945,-0.11347 0.06499,-0.25087 0.07898,-0.30533 0.05252,-0.20444 0.135873,-0.50901 0.259721,-0.94899 0.125156,-0.44464 0.154846,-0.5479 0.272865,-0.949 0.05035,-0.1711 0.07661,-0.25902 0.162713,-0.54464 0.08548,-0.28356 0.277181,-0.8964 0.356215,-1.13879 0.0148,-0.0454 0.03132,-0.0974 0.03671,-0.11553 0.02582,-0.087 0.123817,-0.37796 0.169534,-0.50338 0.200859,-0.55102 0.277111,-1.08204 0.303356,-2.11254 0.03069,-1.20488 -0.04856,-2.41075 -0.214219,-3.25959 -0.02126,-0.10892 -0.04514,-0.23147 -0.05307,-0.27232 -0.03956,-0.20381 -0.140961,-0.5878 -0.220088,-0.83346 -0.272177,-0.845 -0.627468,-1.51573 -1.097175,-2.07128 -0.138288,-0.16356 -0.597051,-0.58655 -0.754275,-0.69546 -0.787754,-0.54567 -1.700775,-0.81309 -2.776032,-0.81309 -1.048684,0 -2.17377,0.30162 -3.002094,0.80483 -0.920364,0.55911 -1.578752,1.3186 -1.997862,2.30463 -0.125892,0.29618 -0.127861,0.29977 -0.199503,0.36314 l -0.05854,0.0518 -0.175568,-0.0118 c -0.28034,-0.0188 -0.388229,-0.0883 -0.403855,-0.26026 -0.02902,-0.3193 0.341802,-1.20582 0.820072,-1.96056 0.757972,-1.19611 1.790237,-2.18583 2.869232,-2.75096 0.361572,-0.18938 0.840198,-0.37989 1.126317,-0.44832 0.02984,-0.007 0.115291,-0.0279 0.189891,-0.0462 0.649537,-0.15926 1.479337,-0.18262 2.088806,-0.0588 1.282359,0.26051 2.263279,1.05377 3.031558,2.45157 0.06834,0.12434 0.124258,0.22997 0.124258,0.23473 0,0.005 0.01981,0.0479 0.04403,0.0958 0.238464,0.47175 0.618182,1.45985 0.813589,2.11712 0.04588,0.15432 0.09139,0.30657 0.10113,0.33834 0.166707,0.54355 0.364527,1.55648 0.441577,2.26108 0.05038,0.46072 0.06386,0.63003 0.08277,1.03977 0.02395,0.51897 0.02412,0.51962 0.09328,0.36278 0.02995,-0.0679 0.0617,-0.13833 0.07055,-0.15648 0.0089,-0.0182 0.06542,-0.14813 0.125706,-0.28883 0.06029,-0.14069 0.117185,-0.27066 0.126444,-0.28882 0.0093,-0.0181 0.04174,-0.0924 0.07218,-0.16504 0.03044,-0.0726 0.06281,-0.14689 0.07193,-0.16504 0.0091,-0.0182 0.04143,-0.0906 0.07179,-0.16092 0.03037,-0.0704 0.08005,-0.18547 0.110419,-0.25582 0.03037,-0.0703 0.06221,-0.14276 0.07078,-0.16091 0.0086,-0.0182 0.04111,-0.0924 0.07234,-0.16504 0.03122,-0.0726 0.06403,-0.14689 0.07289,-0.16505 0.0089,-0.0181 0.06242,-0.13698 0.119014,-0.26406 0.131371,-0.29501 0.402764,-0.8976 0.423691,-0.94075 0.06058,-0.12491 0.11438,-0.2397 0.288344,-0.61525 0.189521,-0.40912 0.362829,-0.77229 0.472876,-0.99093 0.02887,-0.0574 0.0525,-0.10698 0.0525,-0.11026 0,-0.003 0.02358,-0.0529 0.0524,-0.11025 0.02882,-0.0574 0.0971,-0.19342 0.151722,-0.30235 0.105402,-0.21018 0.191002,-0.37902 0.301224,-0.59415 0.03721,-0.0726 0.103271,-0.20259 0.146814,-0.28883 0.232552,-0.46056 1.001988,-1.83991 1.266098,-2.2697 0.0936,-0.15232 0.194707,-0.20652 0.382464,-0.20504 0.156238,10e-4 0.262676,0.0414 0.325901,0.12312 0.04411,0.057 0.05011,0.0783 0.04485,0.15952 -0.0051,0.0794 -0.03145,0.13999 -0.171937,0.3961 -0.09123,0.1663 -0.219571,0.38778 -0.285212,0.49217 -0.09282,0.14761 -0.677109,1.20868 -0.677109,1.22963 0,0.003 -0.0529,0.10619 -0.117552,0.23037 -0.06465,0.12417 -0.117552,0.22803 -0.117552,0.23079 0,0.003 -0.04366,0.0895 -0.09702,0.19276 -0.159493,0.30862 -0.204435,0.39871 -0.431225,0.8644 -0.119357,0.24509 -0.240578,0.49255 -0.269381,0.54992 -0.0288,0.0574 -0.05237,0.10698 -0.05237,0.11025 0,0.003 -0.02507,0.0566 -0.05572,0.11851 -0.09309,0.18804 -0.09726,0.19686 -0.315021,0.66544 -0.116005,0.24963 -0.221867,0.47615 -0.23525,0.50338 -0.01338,0.0272 -0.07421,0.16092 -0.135176,0.29708 -0.06096,0.13616 -0.118076,0.26241 -0.126914,0.28057 -0.02644,0.0543 -0.315004,0.69823 -0.384599,0.85822 -0.03554,0.0817 -0.110828,0.25623 -0.167312,0.38785 -0.05648,0.13162 -0.15553,0.36185 -0.220102,0.51163 -0.145508,0.33751 -0.348725,0.82528 -0.441786,1.0604 -0.03862,0.0976 -0.103404,0.26097 -0.143958,0.36309 -0.20405,0.51383 -0.477032,1.25393 -0.532833,1.44461 -0.07901,0.26999 -0.161942,0.68033 -0.234227,1.15893 -0.01577,0.10439 -0.03655,0.23065 -0.0462,0.28058 -0.0096,0.0499 -0.03798,0.20589 -0.06297,0.34658 -0.06981,0.39302 -0.191913,0.97294 -0.307541,1.46063 -0.01291,0.0545 -0.03625,0.15473 -0.05187,0.22281 -0.01562,0.0681 -0.06118,0.25004 -0.101262,0.40435 -0.04008,0.15431 -0.08456,0.32885 -0.09883,0.38785 -0.02774,0.11463 -0.273779,1.00044 -0.380481,1.36985 -0.132429,0.45848 -0.303292,0.9746 -0.417979,1.26257 -0.06609,0.16596 -0.06389,0.16134 -0.187673,0.39329 -0.170348,0.31919 -0.316684,0.44038 -0.531308,0.44002 -0.06601,-1.6e-4 -0.114028,-0.0118 -0.166616,-0.0406 z"
     id="path3403"
     inkscape:connector-curvature="0" />
  <path
     style="fill:#000000"
     d="m 436.92293,172.64156 c -1.02244,-0.62036 -2.38501,-2.10895 -3.26025,-3.56177 -0.99046,-1.64409 -1.62931,-3.64974 -1.8668,-5.8607 -0.0724,-0.67405 -0.0942,-2.21994 -0.0416,-2.95925 0.23198,-3.26547 1.36822,-6.13497 3.27957,-8.28232 0.64341,-0.72285 1.39605,-1.39701 1.88008,-1.68401 0.33605,-0.19926 0.53761,-0.17937 0.53761,0.0531 0,0.0834 -0.0786,0.18008 -0.38257,0.47096 -1.62987,1.55948 -2.70801,3.42748 -3.33563,5.77932 -0.88705,3.32399 -0.75934,7.65826 0.31688,10.75438 0.66384,1.90976 1.5621,3.33176 2.96005,4.68589 0.46286,0.44835 0.52294,0.55748 0.37913,0.68872 -0.0976,0.089 -0.21609,0.0676 -0.46644,-0.0843 z m 23.17416,0.075 c -0.1277,-0.12877 -0.0802,-0.21408 0.36156,-0.64972 1.62902,-1.60638 2.61658,-3.30259 3.24978,-5.58173 0.83667,-3.01155 0.84389,-6.91937 0.0184,-9.97256 -0.4358,-1.61189 -1.06825,-2.97002 -1.93542,-4.1561 -0.41857,-0.5725 -0.73495,-0.93008 -1.30529,-1.47526 -0.47103,-0.45025 -0.52732,-0.54628 -0.39237,-0.66943 0.14075,-0.12845 0.3832,-0.022 0.95304,0.41834 1.06693,0.82451 2.26723,2.2692 3.00845,3.621 0.83479,1.52245 1.3748,3.2981 1.61885,5.32305 0.10018,0.83126 0.10041,2.97815 3.9e-4,3.7893 -0.33063,2.68171 -1.148,4.84145 -2.56088,6.7666 -0.74297,1.01235 -1.82296,2.07484 -2.55863,2.51717 -0.25041,0.15056 -0.3608,0.16727 -0.45792,0.0693 z m -37.43856,-1.88098 c -1.89921,-0.31628 -2.94428,-1.48778 -3.32396,-3.72606 -0.10383,-0.61214 -0.1469,-2.33348 -0.0767,-3.06466 0.15896,-1.65516 0.58143,-2.7227 1.38942,-3.51095 0.68379,-0.66709 1.55551,-0.99699 2.62734,-0.99431 2.18932,0.005 3.58738,1.41312 3.95909,3.98625 0.10376,0.71828 0.10479,2.74484 0.002,3.42841 -0.22938,1.52162 -0.71984,2.47607 -1.64607,3.2033 -0.28039,0.22015 -0.91509,0.50664 -1.34592,0.60753 -0.36909,0.0864 -1.25319,0.12575 -1.58498,0.0705 z m 1.16838,-0.49019 c 0.3509,-0.0834 0.60462,-0.22338 0.91253,-0.50343 0.51967,-0.47266 0.7328,-1.0004 0.89658,-2.22007 0.0729,-0.54317 0.0714,-4.51927 -0.002,-5.07043 -0.10624,-0.79818 -0.25231,-1.25983 -0.5155,-1.62925 -0.41352,-0.58042 -1.07445,-0.91939 -1.80436,-0.92541 -1.10874,-0.009 -1.94942,0.62231 -2.24814,1.68862 -0.19902,0.71045 -0.26856,2.16138 -0.2179,4.54707 0.0466,2.19362 0.24773,2.96094 0.94154,3.59154 0.4647,0.42236 0.84154,0.56991 1.46676,0.57431 0.18574,0.001 0.44244,-0.0225 0.57044,-0.053 z m 28.01894,0.45022 c -0.73745,-0.14504 -1.28916,-0.41594 -1.79929,-0.88349 -0.99614,-0.91297 -1.44297,-2.3544 -1.4433,-4.65583 -3.9e-4,-2.19862 0.40023,-3.60741 1.30627,-4.59448 0.81852,-0.89172 2.09334,-1.28591 3.4569,-1.0689 0.74538,0.11862 1.29402,0.38445 1.86051,0.90147 0.31442,0.28697 0.43803,0.43168 0.60328,0.70628 0.69416,1.15347 0.91501,2.27729 0.86772,4.41542 -0.0246,1.11252 -0.0817,1.60068 -0.26399,2.25843 -0.43089,1.55451 -1.35311,2.52288 -2.73448,2.87133 -0.52789,0.13315 -1.32132,0.15446 -1.85362,0.0498 z m 1.36265,-0.45016 c 0.86679,-0.20603 1.44735,-0.86767 1.67731,-1.91156 0.12457,-0.56547 0.16116,-0.9592 0.20773,-2.23524 0.0688,-1.88463 -0.0281,-3.80599 -0.22758,-4.51332 -0.29932,-1.06131 -1.15646,-1.70471 -2.24899,-1.68816 -0.87538,0.0133 -1.59344,0.45578 -1.97807,1.21901 -0.32891,0.65269 -0.41406,1.43186 -0.41409,3.7893 -3e-5,2.08211 0.0566,2.91885 0.24412,3.60885 0.24772,0.9114 0.83345,1.52949 1.64153,1.73222 0.26292,0.066 0.81826,0.0654 1.09804,-0.001 z m -11.07092,-3.0447 c -0.40741,-0.093 -0.75281,-0.26858 -1.02771,-0.52237 -0.38293,-0.3535 -0.57927,-0.76743 -0.63626,-1.3414 -0.0354,-0.35673 0.0795,-0.83463 1.04772,-4.35591 0.45157,-1.64236 0.81204,-2.99433 0.80103,-3.00437 -0.011,-0.0101 -0.61399,-0.0183 -1.33997,-0.0183 l -1.31996,0 -0.0971,-0.0886 c -0.10608,-0.0968 -0.12065,-0.19979 -0.0532,-0.37628 0.0823,-0.21538 0.12292,-0.22082 1.65197,-0.22082 1.28337,0 1.38484,-0.005 1.40374,-0.0631 0.0112,-0.0347 0.23465,-0.86428 0.49654,-1.84343 0.26189,-0.97915 0.50914,-1.84798 0.54944,-1.93073 0.16583,-0.34052 0.5162,-0.56847 0.87772,-0.57102 0.55632,-0.004 0.81373,0.30313 0.69303,0.82673 -0.0474,0.20571 -0.86988,3.21897 -0.95543,3.5004 l -0.0247,0.0812 1.31948,5.3e-4 c 0.97977,4e-4 1.34477,0.0122 1.41769,0.0459 0.13551,0.0626 0.17702,0.19099 0.12201,0.37743 -0.0772,0.26168 -0.0783,0.26184 -1.66012,0.26184 l -1.38451,0 -0.0391,0.13534 c -0.0215,0.0744 -0.46153,1.66187 -0.97779,3.52765 l -0.93866,3.39232 -0.002,0.61351 c -0.002,0.58455 0.002,0.62201 0.0964,0.79389 0.0563,0.10267 0.15849,0.21681 0.23727,0.26493 0.1263,0.0771 0.17127,0.0833 0.51408,0.07 0.30676,-0.0119 0.42698,-0.0345 0.6553,-0.12337 0.89493,-0.34824 1.56659,-1.05169 2.27493,-2.38261 0.31479,-0.59149 0.36006,-0.65769 0.46397,-0.67851 0.16983,-0.0341 0.32352,0.0132 0.36474,0.11214 0.0478,0.11463 -0.0266,0.31624 -0.31748,0.86091 -0.51427,0.96292 -1.25034,1.79587 -1.99116,2.25321 -0.66654,0.41148 -1.51224,0.56489 -2.22142,0.40295 z m -38.44838,-0.22611 c -0.16265,-0.0759 -0.1684,-0.406 -0.01,-0.55092 0.0741,-0.0676 0.14771,-0.0761 0.86137,-0.0988 1.23624,-0.0393 1.56579,-0.1339 1.76416,-0.50639 0.0993,-0.18642 3.62313,-12.98941 3.62313,-13.16371 0,-0.19069 -0.16021,-0.3009 -0.49809,-0.34265 -0.11083,-0.0137 -0.53184,-0.0361 -0.93559,-0.0498 -0.64119,-0.0217 -0.74456,-0.0335 -0.81678,-0.0932 -0.15696,-0.12963 -0.0903,-0.44738 0.11402,-0.54382 0.10885,-0.0514 0.5954,-0.0558 4.83607,-0.0444 5.15926,0.0139 4.90557,0.004 5.72343,0.22897 1.66522,0.45855 2.71603,1.49398 2.89111,2.84882 0.20884,1.61599 -1.17292,3.41284 -3.39759,4.41823 -0.78535,0.35492 -1.47155,0.55937 -2.38029,0.70917 -0.31883,0.0526 -0.75555,0.065 -2.88586,0.0825 l -2.51018,0.0205 -0.80077,2.94122 c -0.44042,1.61766 -0.80119,3.00289 -0.8017,3.07827 -0.001,0.17348 0.12618,0.28896 0.3856,0.34962 0.10277,0.024 0.54449,0.0543 0.98158,0.0672 0.93789,0.0278 0.94293,0.0295 0.91636,0.32198 -0.0123,0.13547 -0.0434,0.21661 -0.10412,0.27209 -0.10021,0.0915 -0.0989,0.0915 -2.73399,0.062 -0.83736,-0.009 -2.10972,-0.005 -2.82746,0.009 -0.96209,0.0191 -1.32858,0.015 -1.39481,-0.0159 z m 10.64832,-7.71848 c 1.62283,-0.13985 2.92029,-0.74478 3.60159,-1.67922 0.5277,-0.72376 0.94457,-1.95308 0.99286,-2.92783 0.0281,-0.56717 -0.0166,-0.82389 -0.20675,-1.1875 -0.22576,-0.43171 -0.71038,-0.78531 -1.3459,-0.98203 -0.59788,-0.18508 -0.85046,-0.20295 -2.88362,-0.20405 -1.04399,-5.7e-4 -1.96437,0.0118 -2.04529,0.0275 -0.23248,0.045 -0.36942,0.17641 -0.46978,0.45068 -0.12446,0.34013 -1.80816,6.49825 -1.78298,6.52122 0.0388,0.0354 3.70417,0.0188 4.13987,-0.0187 z"
     id="path3401"
     inkscape:connector-curvature="0" />
  <line
     id="e1044_line"
     x1="294.47647"
     y1="283.43701"
     x2="400.59763"
     y2="174.41406"
     style="fill:none;stroke:#000000;stroke-width:2.25236511px;marker-end:url(#arrow15-12-right)" />
  <path
     style="fill:#000000"
     d="m 356.45874,253.95945 c -0.17828,-0.0654 -0.73376,-0.47753 -1.05577,-0.78339 -1.01149,-0.96076 -1.83378,-2.10753 -2.38402,-3.32478 -0.57685,-1.2761 -0.93544,-2.79828 -1.03943,-4.41234 -0.0368,-0.5708 -0.0166,-1.71147 0.0399,-2.24983 0.0935,-0.89171 0.26765,-1.75843 0.50834,-2.5296 0.54833,-1.75683 1.41176,-3.19812 2.67124,-4.45898 0.43793,-0.43842 1.05866,-0.9182 1.27836,-0.98809 0.15791,-0.0502 0.30634,0.1058 0.22904,0.24078 -0.017,0.0296 -0.15343,0.16923 -0.30328,0.31029 -0.90392,0.85082 -1.58089,1.79357 -2.11066,2.9393 -0.76958,1.66436 -1.13592,3.55205 -1.1376,5.86184 -0.002,2.50108 0.45776,4.63228 1.38035,6.40112 0.44544,0.85402 0.99527,1.58347 1.76008,2.33508 0.21156,0.20792 0.39755,0.4 0.4133,0.42686 0.0485,0.0827 0.006,0.18585 -0.0915,0.22311 -0.0473,0.018 -0.0893,0.0322 -0.0933,0.0313 -0.004,-8.2e-4 -0.0333,-0.011 -0.0651,-0.0227 z m 19.11137,7.1e-4 c -0.0676,-0.0248 -0.11024,-0.0922 -0.11024,-0.17402 0,-0.0458 0.0781,-0.13526 0.31966,-0.36603 0.73221,-0.69943 1.2942,-1.42476 1.77271,-2.28791 0.69746,-1.2581 1.11018,-2.57388 1.34337,-4.28274 0.16492,-1.20852 0.18481,-2.86895 0.0493,-4.11498 -0.20484,-1.88346 -0.6823,-3.47159 -1.44743,-4.8144 -0.48209,-0.84607 -0.93643,-1.42272 -1.67639,-2.12768 -0.38531,-0.36708 -0.41642,-0.41883 -0.31651,-0.52658 0.0794,-0.0856 0.15777,-0.0835 0.32572,0.009 0.2679,0.14733 0.42303,0.26836 0.89527,0.69847 0.58769,0.53526 0.99968,1.0004 1.45599,1.64383 1.24738,1.75888 1.94347,3.95819 2.02664,6.40321 0.0433,1.27319 -0.0479,2.3963 -0.27982,3.44709 -0.13357,0.60509 -0.19772,0.83678 -0.38233,1.38091 -0.56377,1.66172 -1.47905,3.10458 -2.69386,4.24664 -0.41184,0.38718 -0.80048,0.69408 -1.02434,0.80891 -0.16763,0.086 -0.17369,0.0873 -0.25774,0.0564 z m -6.612,-1.58793 c -0.92657,-0.10017 -1.659,-0.49612 -2.17907,-1.17799 -0.22428,-0.29406 -0.52544,-1.00556 -0.64003,-1.5121 -0.2291,-1.01269 -0.23587,-2.75761 -0.0149,-3.85483 0.0964,-0.47873 0.28935,-0.98232 0.524,-1.36757 0.28496,-0.46784 0.61161,-0.79976 1.03899,-1.05575 1.10593,-0.66241 2.73428,-0.53212 3.69035,0.29528 0.35855,0.31029 0.60964,0.6538 0.82267,1.12546 0.36155,0.80053 0.47792,1.50609 0.47816,2.89901 2.6e-4,1.21111 -0.0892,1.88447 -0.33869,2.55003 -0.43842,1.16966 -1.26345,1.87796 -2.40432,2.06413 -0.28129,0.0459 -0.72563,0.0615 -0.97712,0.0343 z m 0.81472,-0.41629 c 0.30392,-0.0709 0.53323,-0.1926 0.76954,-0.40831 0.49764,-0.45425 0.69147,-1.04111 0.77785,-2.35509 0.0331,-0.50416 0.0337,-2.77942 8.2e-4,-3.24068 -0.0419,-0.58733 -0.12496,-1.09951 -0.22049,-1.35955 -0.0694,-0.18901 -0.26219,-0.50705 -0.38718,-0.63883 -0.47118,-0.49679 -1.20596,-0.70058 -1.87807,-0.52087 -0.54346,0.14531 -0.9013,0.42031 -1.15447,0.88724 -0.29917,0.55177 -0.37191,1.18299 -0.37211,3.22904 -2.5e-4,2.26685 0.0791,2.90251 0.44372,3.55543 0.23562,0.42194 0.65265,0.7384 1.12039,0.85022 0.25742,0.0615 0.63982,0.0621 0.9,0.001 z m -27.7284,-2.50125 c -0.22006,-0.0674 -0.38308,-0.31932 -0.34548,-0.5339 0.0299,-0.17074 0.27957,-1.12765 0.53735,-2.05968 0.50656,-1.83152 1.0573,-3.85381 1.10161,-4.04503 0.0655,-0.28254 0.0642,-0.81876 -0.002,-1.02395 -0.0924,-0.28446 -0.30781,-0.41637 -0.64056,-0.39226 -0.58283,0.0422 -0.98636,0.63674 -1.39191,2.0507 -0.17084,0.59563 -0.17458,0.60117 -0.40605,0.60117 -0.0966,0 -0.13351,-0.012 -0.18183,-0.0589 -0.0585,-0.0568 -0.0596,-0.0645 -0.0309,-0.21566 0.0355,-0.18686 0.20906,-0.77278 0.31536,-1.06434 0.0417,-0.11449 0.14299,-0.34236 0.225,-0.50637 0.26637,-0.53272 0.49558,-0.81567 0.81518,-1.00631 0.27622,-0.16475 0.44529,-0.20784 0.81015,-0.20647 0.56501,0.002 1.07262,0.21462 1.41534,0.59246 0.15068,0.16612 0.34276,0.50652 0.38846,0.68844 0.017,0.0676 0.0389,0.12009 0.0487,0.11657 0.01,-0.004 0.0905,-0.0903 0.1794,-0.19291 0.60679,-0.70034 1.40092,-1.1322 2.20171,-1.19733 0.64635,-0.0526 1.18875,0.0915 1.56088,0.41468 0.25722,0.22335 0.37723,0.47728 0.37786,0.7995 0.001,0.63 -0.54699,1.12858 -1.19199,1.08406 -0.22318,-0.0154 -0.35302,-0.0627 -0.48081,-0.1753 -0.13848,-0.12198 -0.2014,-0.24637 -0.21554,-0.4261 -0.0358,-0.4556 0.34337,-0.89002 0.91386,-1.04693 l 0.14051,-0.0386 -0.17255,-0.0754 c -0.65456,-0.28603 -1.50977,-0.13238 -2.23839,0.40216 -0.41825,0.30684 -1.15552,1.28433 -1.26481,1.6769 -0.0221,0.0795 -0.13204,0.48544 -0.24426,0.90219 -0.92429,3.43238 -1.18096,4.35232 -1.26644,4.53905 -0.0517,0.11303 -0.23783,0.28411 -0.38181,0.35102 -0.14845,0.069 -0.42842,0.0917 -0.57557,0.0466 z m 18.61511,-0.007 c -0.56299,-0.11489 -0.99773,-0.41886 -1.2315,-0.86107 -0.13178,-0.24928 -0.18383,-0.42344 -0.20601,-0.68935 -0.0194,-0.23266 0.006,-0.39853 0.14591,-0.95431 0.11949,-0.47451 0.75258,-2.8034 1.13676,-4.18172 0.14605,-0.52399 0.26554,-0.96201 0.26554,-0.97338 0,-0.0117 -0.4581,-0.0207 -1.05382,-0.0208 -0.64636,-7e-5 -1.09057,-0.009 -1.14887,-0.0242 -0.11751,-0.0298 -0.17319,-0.0988 -0.17319,-0.21473 0,-0.13059 0.0602,-0.24124 0.15766,-0.28977 0.0779,-0.0388 0.18153,-0.043 1.24105,-0.0499 0.6358,-0.004 1.156,-0.0105 1.156,-0.0141 0,-0.004 0.18445,-0.69214 0.40988,-1.53004 0.28369,-1.05443 0.43322,-1.56808 0.4857,-1.66844 0.1596,-0.30519 0.51881,-0.48891 0.84699,-0.43321 0.19646,0.0333 0.31146,0.10072 0.39564,0.23181 0.11922,0.18565 0.11123,0.22926 -0.34595,1.88832 -0.22699,0.82372 -0.41271,1.50304 -0.41271,1.5096 0,0.007 0.45253,0.0119 1.00563,0.0119 0.56211,0 1.06632,0.0103 1.14323,0.0233 0.1924,0.0326 0.23702,0.0867 0.21928,0.26567 -0.0161,0.16257 -0.0828,0.23891 -0.23731,0.27161 -0.0549,0.0116 -0.59704,0.0214 -1.20474,0.0217 -0.60771,3.1e-4 -1.10492,0.006 -1.10492,0.0128 0,0.007 -0.35653,1.30963 -0.79229,2.89536 -0.49432,1.79886 -0.803,2.96604 -0.82077,3.10354 -0.0364,0.2819 -0.015,0.76879 0.0411,0.93288 0.0624,0.18266 0.2179,0.31707 0.40863,0.3532 0.26779,0.0507 0.62638,-0.019 0.99646,-0.19388 0.63226,-0.29871 1.22982,-0.96641 1.69398,-1.89282 0.28481,-0.56845 0.28691,-0.57095 0.48075,-0.57095 0.10643,0 0.21479,0.0858 0.21479,0.17015 0,0.0798 -0.0828,0.28833 -0.21765,0.54814 -0.41231,0.79433 -0.98454,1.47642 -1.58343,1.88744 -0.21808,0.14966 -0.68152,0.36116 -0.90692,0.41388 -0.23664,0.0553 -0.78155,0.0669 -1.00486,0.0214 z"
     id="path3399"
     inkscape:connector-curvature="0" />
  <path
     style="fill:#000000"
     d="m 289.96015,225.51042 c -0.5951,-0.33948 -1.49244,-1.22736 -2.14831,-2.12565 -0.51631,-0.70717 -1.00679,-1.57177 -1.29062,-2.27507 -0.0283,-0.07 -0.0796,-0.19779 -0.11416,-0.28396 -0.0539,-0.1344 -0.21134,-0.59355 -0.30645,-0.8935 -0.0624,-0.19687 -0.19652,-0.72993 -0.26541,-1.05502 -0.13483,-0.63636 -0.23627,-1.38025 -0.2844,-2.0856 -0.0314,-0.46017 -0.0314,-1.56511 -1.2e-4,-2.03665 0.12621,-1.89904 0.58864,-3.63174 1.36935,-5.13078 0.36279,-0.69661 0.59452,-1.06475 1.0416,-1.65478 0.58744,-0.77526 1.55584,-1.7028 2.02474,-1.93932 0.11357,-0.0573 0.13173,-0.061 0.2017,-0.0411 0.0829,0.0235 0.12562,0.0836 0.12435,0.17485 -10e-4,0.08 -0.0314,0.11905 -0.27885,0.3599 -1.13348,1.10325 -1.95265,2.40248 -2.51051,3.98174 -0.0457,0.12925 -0.10313,0.30109 -0.12772,0.38187 -0.0246,0.0808 -0.0578,0.18653 -0.0737,0.235 -0.0406,0.12366 -0.18449,0.69593 -0.23379,0.9302 -0.16234,0.77132 -0.24445,1.35484 -0.31692,2.25206 -0.0598,0.74079 -0.065,2.10085 -0.0106,2.80039 0.15104,1.94199 0.48043,3.35017 1.14289,4.88599 0.10261,0.23787 0.41649,0.83413 0.57804,1.09807 0.43717,0.7142 0.83718,1.21694 1.4708,1.84853 0.15735,0.15684 0.30288,0.30928 0.32342,0.33874 0.0549,0.0788 0.0489,0.1915 -0.0132,0.25031 -0.0715,0.0676 -0.16396,0.0627 -0.30221,-0.0162 z m 10.27722,0.004 c -0.0352,-0.0396 -0.0536,-0.0836 -0.0536,-0.12865 0,-0.0598 0.0253,-0.0935 0.20176,-0.26825 0.31768,-0.31468 0.54302,-0.55413 0.73128,-0.77706 1.03292,-1.22314 1.75537,-2.67193 2.19161,-4.39504 0.0437,-0.17282 0.0902,-0.3671 0.10319,-0.43173 0.013,-0.0646 0.0422,-0.21003 0.0648,-0.32312 0.10577,-0.52795 0.20747,-1.31014 0.26039,-2.00256 0.0506,-0.66312 0.0511,-2.18881 7e-4,-2.82468 -0.14149,-1.78689 -0.47829,-3.27421 -1.04021,-4.59353 -0.44251,-1.03896 -1.04319,-1.99812 -1.69778,-2.71098 -0.089,-0.0969 -0.28869,-0.29962 -0.44371,-0.45041 -0.3437,-0.3343 -0.37206,-0.36889 -0.37206,-0.45395 0,-0.0755 0.0681,-0.15377 0.15092,-0.17345 0.13548,-0.0322 0.60192,0.29661 1.13658,0.80117 1.11387,1.05114 2.05142,2.46432 2.62606,3.95827 0.46146,1.19971 0.74071,2.49818 0.84861,3.946 0.0327,0.43955 0.0327,1.74911 -2.1e-4,2.19331 -0.21857,2.9564 -1.23043,5.46696 -2.97855,7.39023 -0.38031,0.4184 -0.96068,0.94111 -1.27642,1.14959 -0.26895,0.17757 -0.36247,0.19713 -0.45342,0.0948 z m -24.6742,-4.65721 c -0.13901,-0.0454 -0.24867,-0.12868 -0.31464,-0.23882 -0.0435,-0.0725 -0.0516,-0.11147 -0.0512,-0.24304 2.8e-4,-0.0862 0.0157,-0.21395 0.0342,-0.28396 0.0186,-0.07 0.0545,-0.21541 0.08,-0.32312 0.0254,-0.1077 0.23974,-0.92726 0.47625,-1.82123 1.23849,-4.68124 1.10449,-4.12329 1.10295,-4.59224 -7.2e-4,-0.29229 -0.008,-0.36263 -0.0452,-0.47814 -0.10634,-0.32666 -0.283,-0.43982 -0.65259,-0.418 -0.21051,0.0124 -0.34136,0.0701 -0.51643,0.22769 -0.26341,0.23706 -0.49969,0.66646 -0.68571,1.24615 -0.0311,0.0969 -0.0647,0.19828 -0.0746,0.2252 -0.01,0.0269 -0.0516,0.17234 -0.0926,0.32313 -0.14724,0.54156 -0.17576,0.62305 -0.24133,0.68929 -0.12892,0.13025 -0.43057,0.0444 -0.43057,-0.12251 0,-0.12183 0.14335,-0.6607 0.29404,-1.10532 0.0982,-0.28968 0.19427,-0.51651 0.33601,-0.79312 0.17647,-0.34439 0.34879,-0.58263 0.54785,-0.75743 0.29949,-0.26298 0.5894,-0.3686 1.01173,-0.3686 0.71605,0 1.35363,0.36673 1.67011,0.96063 0.072,0.13507 0.17542,0.41418 0.17542,0.47329 0,0.0683 0.0534,0.0302 0.16555,-0.11818 0.15806,-0.20907 0.61309,-0.63349 0.84858,-0.7915 0.21543,-0.14454 0.61613,-0.34048 0.82873,-0.40525 0.54454,-0.16587 1.19709,-0.1593 1.654,0.0167 0.41499,0.15982 0.71176,0.44369 0.84089,0.80433 0.0598,0.16703 0.0544,0.51478 -0.0109,0.69418 -0.15013,0.41286 -0.47427,0.6881 -0.90215,0.76608 -0.45694,0.0833 -0.83737,-0.12575 -0.93386,-0.51311 -0.0314,-0.12632 -0.033,-0.16543 -0.0117,-0.28721 0.0392,-0.22297 0.15791,-0.4301 0.34045,-0.5942 0.17776,-0.15979 0.29364,-0.22511 0.52696,-0.29702 0.094,-0.029 0.17097,-0.058 0.17106,-0.0645 2.2e-4,-0.018 -0.26352,-0.12782 -0.40337,-0.16798 -0.0995,-0.0286 -0.19397,-0.0356 -0.47594,-0.0352 -0.40182,5.2e-4 -0.55295,0.0299 -0.88981,0.17286 -0.5549,0.23552 -0.96767,0.60454 -1.44864,1.29509 -0.28004,0.40205 -0.41138,0.64613 -0.47438,0.88157 -0.0776,0.28989 -0.6215,2.37255 -0.849,3.2508 -0.10881,0.42006 -0.23042,0.88271 -0.27023,1.02811 -0.0398,0.14541 -0.11821,0.43181 -0.17421,0.63646 -0.15473,0.56542 -0.1652,0.59926 -0.21999,0.71104 -0.16694,0.34055 -0.59137,0.52968 -0.93591,0.41706 z m 18.80584,0.006 c -0.8325,-0.14317 -1.40216,-0.69926 -1.51301,-1.47698 -0.0326,-0.22844 -0.0116,-0.56922 0.0517,-0.84207 0.14628,-0.63014 0.7623,-2.98055 1.42929,-5.45346 0.029,-0.10746 0.0527,-0.20565 0.0527,-0.2182 0,-0.017 -0.27763,-0.0252 -1.08122,-0.0322 -0.73942,-0.006 -1.10556,-0.0166 -1.15821,-0.0322 -0.10595,-0.0314 -0.14029,-0.0855 -0.14029,-0.22111 0,-0.14654 0.0457,-0.2524 0.12994,-0.30059 0.0634,-0.0363 0.12374,-0.0386 1.24556,-0.0479 l 1.17891,-0.01 0.035,-0.1175 c 0.0193,-0.0646 0.0914,-0.33781 0.16036,-0.60708 0.11727,-0.45796 0.41022,-1.59048 0.57243,-2.21289 0.0875,-0.33571 0.17885,-0.51989 0.32515,-0.65546 0.35368,-0.32775 0.92784,-0.29216 1.09268,0.0677 0.0651,0.14216 0.0665,0.21996 0.008,0.47055 -0.0802,0.34561 -0.0793,0.34217 -0.45213,1.73939 -0.18922,0.70911 -0.33879,1.29734 -0.33238,1.30717 0.006,0.0104 0.46545,0.0179 1.0975,0.0179 1.17733,0 1.18838,9.3e-4 1.26162,0.10671 0.0273,0.0394 0.0327,0.0763 0.0237,0.15952 -0.018,0.16492 -0.0713,0.24542 -0.19242,0.29047 -0.0948,0.0353 -0.1766,0.0383 -1.24072,0.0461 l -1.13923,0.008 -0.80122,3.02849 c -0.46345,1.75179 -0.80967,3.09866 -0.82128,3.19494 -0.0255,0.21164 -0.0255,0.67603 0,0.84305 0.0355,0.23225 0.15099,0.41151 0.31658,0.49146 0.20284,0.0979 0.62466,0.0593 0.9977,-0.0913 0.24406,-0.0985 0.63104,-0.36177 0.83922,-0.57087 0.38267,-0.38434 0.73321,-0.90504 1.03351,-1.53523 0.24621,-0.51666 0.25476,-0.52674 0.44729,-0.52726 0.12415,-3.4e-4 0.2046,0.0478 0.22473,0.13461 0.0349,0.15017 -0.33994,0.90667 -0.70597,1.42495 -0.48163,0.68197 -0.97382,1.1317 -1.53654,1.404 -0.44274,0.21423 -0.96092,0.29397 -1.40932,0.21686 z"
     id="path3395"
     inkscape:connector-curvature="0" />
  <text
     x="304.423"
     y="-41.076996"
     id="e1253_texte"
     style="font-size:20px;font-family:Arial;fill:#000000" />
  <path
     style="fill:#000000"
     d="m 292.5324,301.9271 c -0.34763,-0.0378 -0.74625,-0.0999 -0.93546,-0.1457 -0.22739,-0.0551 -0.28834,-0.0713 -0.42245,-0.11236 -0.21746,-0.0666 -0.33603,-0.107 -0.43382,-0.14772 -0.0487,-0.0203 -0.0928,-0.0369 -0.0979,-0.0369 -0.012,0 -0.44678,-0.19865 -0.53336,-0.24368 -0.27553,-0.14329 -0.63924,-0.38338 -0.88256,-0.5826 -0.61429,-0.50293 -1.0229,-1.01588 -1.385,-1.73867 -0.15878,-0.31693 -0.32331,-0.79063 -0.40954,-1.17911 -0.0112,-0.0505 -0.0268,-0.11944 -0.0345,-0.15313 -0.0217,-0.0939 -0.047,-0.25361 -0.0789,-0.49767 -0.0565,-0.43243 -0.0322,-1.4524 0.0446,-1.8682 0.009,-0.0463 0.0239,-0.13591 0.034,-0.19907 0.0102,-0.0632 0.0252,-0.14242 0.0335,-0.17611 0.008,-0.0337 0.024,-0.10604 0.0351,-0.16078 0.0111,-0.0548 0.0425,-0.18223 0.0698,-0.2833 0.0273,-0.10106 0.056,-0.20787 0.0638,-0.23735 0.0465,-0.17685 0.16499,-0.52272 0.25974,-0.758 0.0339,-0.0842 0.0725,-0.18069 0.0857,-0.21438 0.0132,-0.0337 0.0344,-0.0819 0.0471,-0.10719 0.0127,-0.0253 0.0509,-0.10796 0.085,-0.18376 0.10796,-0.24038 0.35972,-0.71532 0.50328,-0.94941 0.0207,-0.0337 0.0586,-0.0957 0.0843,-0.13782 0.0257,-0.0421 0.0607,-0.0949 0.0778,-0.11721 0.0171,-0.0224 0.0312,-0.0444 0.0312,-0.049 0,-0.005 0.045,-0.0724 0.1,-0.15077 0.055,-0.0783 0.12041,-0.17343 0.14537,-0.21133 0.0762,-0.11568 0.39896,-0.53281 0.56377,-0.72853 1.07683,-1.27883 2.4394,-2.32721 3.92275,-3.01823 0.26917,-0.12539 0.4723,-0.21206 0.64601,-0.27562 0.0554,-0.0203 0.11767,-0.0435 0.13844,-0.0515 0.0208,-0.008 0.0547,-0.0207 0.0755,-0.028 0.0208,-0.007 0.0566,-0.0211 0.0797,-0.0306 0.0597,-0.0246 0.55642,-0.17749 0.69636,-0.2143 0.15723,-0.0413 0.41308,-0.10057 0.53695,-0.12426 0.0554,-0.0106 0.12333,-0.0248 0.15101,-0.0315 0.0942,-0.0229 0.50899,-0.0799 0.79704,-0.10947 0.25678,-0.0264 1.21323,-0.0264 1.41788,-1e-5 0.44016,0.0567 0.66937,0.0952 0.88933,0.14917 0.0461,0.0113 0.10277,0.0251 0.12584,0.0306 0.64055,0.15305 1.35448,0.47606 1.88772,0.85406 0.59617,0.42262 1.05711,0.9114 1.43924,1.52617 0.3171,0.51015 0.57366,1.17743 0.69769,1.8146 0.0938,0.48213 0.11082,0.67229 0.11076,1.24036 0,0.56621 -0.0139,0.75133 -0.0941,1.25568 -0.1123,0.70675 -0.37569,1.54922 -0.69539,2.22423 -0.013,0.0274 -0.0341,0.0722 -0.047,0.0995 -0.0631,0.13422 -0.10762,0.22066 -0.21884,0.42493 -0.12069,0.22169 -0.27177,0.48403 -0.29541,0.51299 -0.007,0.008 -0.0273,0.0394 -0.0454,0.0689 -0.17372,0.2827 -0.52312,0.76611 -0.77477,1.07192 -0.13342,0.16215 -0.42396,0.49559 -0.45366,0.52065 -0.005,0.004 -0.0542,0.0559 -0.10935,0.11485 -0.4471,0.47792 -1.12178,1.05787 -1.71533,1.47447 -1.49755,1.0511 -3.1604,1.69445 -4.80398,1.85862 -0.2072,0.0207 -1.24668,0.0291 -1.4095,0.0114 z m 1.16482,-0.53347 c 0.0561,-0.008 0.17001,-0.0224 0.25307,-0.0324 0.34422,-0.0414 0.85362,-0.16826 1.19136,-0.29675 0.0369,-0.014 0.0973,-0.0371 0.13423,-0.0513 0.15688,-0.0602 0.63472,-0.28498 0.80214,-0.37729 0.65743,-0.36248 1.31451,-0.85982 1.82263,-1.37952 0.4811,-0.49206 0.98527,-1.12631 1.32682,-1.66913 0.0159,-0.0253 0.0517,-0.0811 0.0796,-0.12399 0.13624,-0.2096 0.62514,-1.09552 0.62514,-1.1328 0,-0.003 0.0181,-0.042 0.0402,-0.0865 0.1906,-0.38378 0.51747,-1.21473 0.64019,-1.62747 0.015,-0.0505 0.0339,-0.11255 0.0419,-0.13782 0.0233,-0.0733 0.16675,-0.59108 0.18238,-0.65846 0.0362,-0.15633 0.1208,-0.54488 0.13578,-0.62401 0.0476,-0.25136 0.0518,-0.27644 0.10014,-0.59339 0.0552,-0.362 0.0742,-0.65347 0.0741,-1.13317 -1.5e-4,-0.50026 -0.0179,-0.72962 -0.0821,-1.06426 -0.0129,-0.0674 -0.028,-0.14662 -0.0336,-0.1761 -0.006,-0.0295 -0.0167,-0.0777 -0.0249,-0.10719 -0.008,-0.0295 -0.0238,-0.0881 -0.0347,-0.13016 -0.0868,-0.33411 -0.21506,-0.64929 -0.39255,-0.96473 -0.21537,-0.38276 -0.5005,-0.72294 -0.839,-1.00098 -0.48046,-0.39464 -1.15326,-0.69327 -1.79619,-0.79725 -0.69339,-0.11214 -1.33032,-0.0734 -2.13941,0.13028 -0.25629,0.0645 -0.6993,0.22573 -1.00724,0.36655 -1.08237,0.49497 -2.01478,1.20839 -2.84162,2.17425 -0.17173,0.20059 -0.64809,0.82916 -0.64809,0.85516 0,0.005 -0.0253,0.0457 -0.0562,0.0901 -0.14989,0.21532 -0.53482,0.91383 -0.66471,1.2062 -0.0393,0.0884 -0.0854,0.18915 -0.10255,0.22381 -0.0171,0.0347 -0.047,0.10357 -0.0665,0.15313 -0.0195,0.0496 -0.0417,0.10389 -0.0494,0.12074 -0.15954,0.34838 -0.44928,1.23979 -0.58856,1.81077 -0.009,0.0358 -0.0234,0.0961 -0.0326,0.13399 -0.009,0.0379 -0.0239,0.0982 -0.0327,0.13399 -0.009,0.0358 -0.028,0.1271 -0.0427,0.2029 -0.0147,0.0758 -0.0333,0.16883 -0.0414,0.20673 -0.008,0.0379 -0.0233,0.12059 -0.0339,0.18376 -0.0106,0.0632 -0.026,0.15274 -0.0342,0.19907 -0.1319,0.74451 -0.17218,1.64067 -0.10084,2.24337 0.0319,0.26948 0.068,0.48969 0.10027,0.61252 0.009,0.0337 0.0282,0.10949 0.0429,0.16845 0.13496,0.54026 0.35929,1.02899 0.67397,1.46837 0.46281,0.64622 1.13115,1.11698 1.90684,1.34312 0.17971,0.0524 0.4698,0.10629 0.72465,0.13462 0.16345,0.0182 0.66415,0.0199 0.78727,0.003 z"
     id="path3405"
     inkscape:connector-curvature="0" />
  <path
     style="fill:#000000"
     d="m 253.10186,164.03547 c -0.31855,-0.13031 -1.10407,-0.76039 -1.64206,-1.31711 -2.22614,-2.3037 -3.43925,-5.02455 -3.80816,-8.54124 -0.0706,-0.6729 -0.0706,-2.75756 -4e-5,-3.42485 0.35155,-3.32391 1.51774,-6.04634 3.53155,-8.24431 0.29411,-0.321 0.92293,-0.90481 1.24891,-1.15951 0.61196,-0.47814 0.84075,-0.57383 0.98151,-0.41053 0.11591,0.13448 0.0744,0.20804 -0.3474,0.61548 -0.97455,0.94138 -1.61217,1.77229 -2.23982,2.91876 -0.93805,1.71347 -1.49166,3.68737 -1.70514,6.07968 -0.0629,0.70437 -0.0858,2.27961 -0.0445,3.05989 0.14293,2.70303 0.72822,4.97202 1.77853,6.89476 0.60308,1.10403 1.19587,1.87926 2.10962,2.75891 0.23302,0.22433 0.44354,0.4424 0.46782,0.4846 0.0461,0.0802 0.0333,0.24083 -0.0217,0.27185 -0.0936,0.0528 -0.20174,0.0575 -0.3091,0.0136 z m 12.65408,0.0218 c -0.0935,-0.0477 -0.13178,-0.10705 -0.13178,-0.2045 0,-0.0798 0.0461,-0.13534 0.37794,-0.45588 0.72784,-0.70291 1.25122,-1.32694 1.75183,-2.08869 1.22283,-1.8607 1.98477,-4.25431 2.20325,-6.92148 0.1405,-1.71515 0.0828,-3.57343 -0.15979,-5.1462 -0.38901,-2.52199 -1.22675,-4.62535 -2.51115,-6.30484 -0.36323,-0.47496 -0.68091,-0.82312 -1.21198,-1.32828 -0.42148,-0.40092 -0.4501,-0.43468 -0.4501,-0.53106 0,-0.12676 0.0882,-0.2119 0.21942,-0.2119 0.1866,0 0.71115,0.36623 1.31912,0.92097 1.59921,1.45923 2.81407,3.32978 3.50663,5.39923 0.26598,0.79478 0.415,1.37653 0.56473,2.20472 0.50801,2.80972 0.28788,5.94063 -0.5928,8.43138 -0.62497,1.76757 -1.49669,3.23678 -2.72005,4.58443 -0.49798,0.54858 -1.30576,1.25145 -1.75544,1.52745 -0.22802,0.13996 -0.32313,0.16889 -0.40983,0.12465 z m -7.29543,-5.55573 c -0.75156,-0.12365 -1.34451,-0.51583 -1.65703,-1.09599 -0.27737,-0.5149 -0.31324,-1.00639 -0.12964,-1.77617 0.0944,-0.39565 0.97104,-3.62513 1.56697,-5.77236 0.11013,-0.39685 0.20905,-0.75461 0.2198,-0.79503 l 0.0196,-0.0735 -1.26706,-0.002 c -0.69688,-8.8e-4 -1.33064,-0.0111 -1.40835,-0.0228 -0.2091,-0.0314 -0.26869,-0.0986 -0.26368,-0.2974 0.004,-0.17553 0.0503,-0.26338 0.1771,-0.33925 0.0718,-0.0429 0.2077,-0.0483 1.52783,-0.0605 l 1.44904,-0.0134 0.0352,-0.13362 c 0.10429,-0.39568 0.45802,-1.71795 0.67364,-2.51808 0.13556,-0.50307 0.24647,-0.92736 0.24647,-0.94288 0,-0.0155 0.0407,-0.12449 0.0904,-0.24214 0.23279,-0.5509 0.8324,-0.82271 1.32735,-0.60172 0.0892,0.0398 0.18908,0.10693 0.22202,0.14915 0.0745,0.0955 0.14651,0.27794 0.14651,0.37126 0,0.0787 -0.16355,0.72999 -0.36649,1.45944 -0.4307,1.54809 -0.65842,2.38753 -0.65842,2.42705 0,0.0414 0.10275,0.0449 1.31042,0.0451 0.82013,8e-5 1.35162,0.0106 1.42052,0.0281 0.15497,0.0393 0.20778,0.12417 0.19115,0.30728 -0.008,0.0899 -0.0364,0.17612 -0.0721,0.22015 -0.12468,0.15377 -0.10496,0.15185 -1.65668,0.16064 -0.78516,0.004 -1.42756,0.0119 -1.42756,0.0165 0,0.005 -0.44079,1.61368 -0.97954,3.57569 -0.53875,1.96202 -0.99337,3.66796 -1.01027,3.79098 -0.0391,0.2848 -0.0392,0.78982 0,1.00973 0.0599,0.33663 0.24789,0.55752 0.52652,0.61852 0.30074,0.0658 0.79614,-0.015 1.18317,-0.19315 0.89401,-0.41144 1.57853,-1.19056 2.27232,-2.58631 0.22416,-0.45097 0.25287,-0.48103 0.45945,-0.48103 0.12795,0 0.17069,0.0122 0.22916,0.0656 0.0982,0.0896 0.0911,0.16336 -0.0452,0.472 -0.41308,0.93501 -1.13121,1.90086 -1.81756,2.44452 -0.46183,0.36581 -0.89028,0.58806 -1.38899,0.7205 -0.2939,0.078 -0.86804,0.11051 -1.14594,0.0648 z m -32.10196,-0.27487 c -0.15793,-0.085 -0.19201,-0.27783 -0.0838,-0.47376 0.0862,-0.15602 0.17495,-0.18243 0.62227,-0.18524 0.19327,-0.001 0.54905,-0.0134 0.79064,-0.027 0.93613,-0.0529 1.22496,-0.1803 1.40303,-0.6187 0.0647,-0.1592 0.63559,-2.23186 3.09034,-11.21895 0.34272,-1.25473 0.55799,-2.09321 0.55799,-2.17337 0,-0.10777 -0.0145,-0.14375 -0.0832,-0.20646 -0.0458,-0.0418 -0.14069,-0.0901 -0.21093,-0.10733 -0.16998,-0.0418 -0.73432,-0.0778 -1.25786,-0.0802 -0.68723,-0.003 -0.81993,-0.0516 -0.81993,-0.29914 0,-0.17636 0.0627,-0.30142 0.18071,-0.36016 0.0931,-0.0463 0.31259,-0.0485 4.84136,-0.0485 5.21517,0 4.89012,-0.009 5.68096,0.16067 1.31017,0.28141 2.33014,0.93255 2.87953,1.83827 0.47408,0.78159 0.54489,1.74575 0.19371,2.63765 -0.16957,0.43066 -0.49194,0.9423 -0.83349,1.32283 -0.21396,0.23838 -0.74424,0.7164 -1.00985,0.91034 -0.91839,0.67053 -2.06107,1.16982 -3.29437,1.43944 -0.82318,0.17997 -0.8877,0.18353 -3.62969,0.20045 l -2.473,0.0153 -0.0386,0.12026 c -0.0213,0.0661 -0.29587,1.07029 -0.61027,2.23144 -1.0954,4.04566 -1.02383,3.76507 -0.99552,3.90281 0.0531,0.25843 0.49215,0.35746 1.59126,0.35896 0.56838,7.8e-4 0.68745,0.0254 0.7408,0.15306 0.0379,0.0906 0.01,0.28767 -0.0551,0.38836 -0.0259,0.0402 -0.0932,0.093 -0.14948,0.11736 -0.0945,0.0409 -0.22163,0.0416 -1.65794,0.009 -0.9183,-0.0205 -1.94464,-0.0276 -2.50518,-0.0172 -2.58986,0.0481 -2.79119,0.0488 -2.86438,0.009 z m 11.3836,-7.96486 c 1.05961,-0.16745 1.94841,-0.52622 2.64017,-1.06572 0.25384,-0.19798 0.40692,-0.35862 0.59252,-0.62181 0.73729,-1.04552 1.20544,-2.89432 0.96091,-3.79479 -0.21059,-0.77549 -0.8018,-1.25873 -1.83165,-1.49714 -0.54975,-0.12727 -0.66873,-0.13302 -2.75291,-0.13302 -1.83059,0 -1.97128,0.003 -2.10077,0.0489 -0.18699,0.0658 -0.32955,0.22262 -0.40372,0.44398 -0.0323,0.0964 -0.45438,1.61834 -0.93795,3.38211 -0.48357,1.76378 -0.88645,3.22872 -0.89527,3.25543 -0.0154,0.0467 0.0693,0.0481 2.21939,0.037 1.8869,-0.01 2.27815,-0.0183 2.50928,-0.0549 z"
     id="path3378"
     inkscape:connector-curvature="0"
     inkscape:export-xdpi="600"
     inkscape:export-ydpi="600" />
</svg>
