<?xml version="1.0" encoding="UTF-8" standalone="no"?>
<svg
   xmlns:dc="http://purl.org/dc/elements/1.1/"
   xmlns:cc="http://creativecommons.org/ns#"
   xmlns:rdf="http://www.w3.org/1999/02/22-rdf-syntax-ns#"
   xmlns:svg="http://www.w3.org/2000/svg"
   xmlns="http://www.w3.org/2000/svg"
   xmlns:sodipodi="http://sodipodi.sourceforge.net/DTD/sodipodi-0.dtd"
   xmlns:inkscape="http://www.inkscape.org/namespaces/inkscape"
   width="631"
   height="321"
   viewBox="0 0 631 321"
   preserveAspectRatio="xMidYMid meet"
   id="svg2"
   version="1.1"
   inkscape:version="0.91 r13725"
   sodipodi:docname="draw coordinates.svg"
   inkscape:export-filename="C:\Users\Simsar\Desktop\draw coordinates.png"
   inkscape:export-xdpi="600"
   inkscape:export-ydpi="600">
  <metadata
     id="metadata26">
    <rdf:RDF>
      <cc:Work
         rdf:about="">
        <dc:format>image/svg+xml</dc:format>
        <dc:type
           rdf:resource="http://purl.org/dc/dcmitype/StillImage" />
        <dc:title></dc:title>
      </cc:Work>
    </rdf:RDF>
  </metadata>
  <defs
     id="defs24" />
  <sodipodi:namedview
     pagecolor="#ffffff"
     bordercolor="#666666"
     borderopacity="1"
     objecttolerance="10"
     gridtolerance="10"
     guidetolerance="10"
     inkscape:pageopacity="0"
     inkscape:pageshadow="2"
     inkscape:window-width="1920"
     inkscape:window-height="1017"
     id="namedview22"
     showgrid="false"
     inkscape:zoom="0.90203894"
     inkscape:cx="235.54409"
     inkscape:cy="376.96353"
     inkscape:window-x="-8"
     inkscape:window-y="-8"
     inkscape:window-maximized="1"
     inkscape:current-layer="svg2" />
  <rect
     id="svgEditorBackground"
     x="0"
     y="-419"
     width="670"
     height="740"
     style="fill:none;stroke:none" />
  <line
     id="e1_line"
     x1="40.426884"
     y1="23.706726"
     x2="40.426884"
     y2="269.70673"
     style="fill:none;stroke:#000000;stroke-width:3px" />
  <line
     id="e15_line"
     x1="39.426884"
     y1="269.70673"
     x2="608.42688"
     y2="270.70673"
     style="fill:none;stroke:#000000;stroke-width:3px" />
  <line
     id="e56_line"
     x1="40.322498"
     y1="269.97614"
     x2="513.32251"
     y2="54.976097"
     style="fill:none;stroke:#000000;stroke-width:3px" />
  <line
     id="e70_line"
     x1="512.32251"
     y1="55.976097"
     x2="514.32251"
     y2="271.97614"
     style="fill:none;stroke:#000000;stroke-width:2.04999995px;stroke-dasharray:4" />
  <text
     x="511.896"
     y="-181.731"
     id="e84_texte"
     style="font-size:20px;font-family:Arial;fill:#000000" />
  <line
     id="e99_line"
     x1="358.32251"
     y1="125.97614"
     x2="359.32251"
     y2="270.97614"
     style="fill:none;stroke:#000000;stroke-width:2.04999995px;stroke-dasharray:4" />
  <text
     x="513.32288"
     y="49.975739"
     id="e152_texte"
     style="font-style:italic;font-size:48px;font-family:'Times New Roman';fill:#000000">B</text>
  <text
     x="175.496"
     y="61.069"
     id="e168_texte"
     style="font-size:20px;font-family:Arial;fill:#000000" />
  <text
     x="9.9228849"
     y="306.77576"
     id="e183_texte"
     style="font-style:italic;font-size:48px;font-family:'Times New Roman';fill:#000000">A</text>
  <text
     x="710.49597"
     y="-201.931"
     id="e240_texte"
     style="font-style:italic;font-size:32px;font-family:'Times New Roman';fill:#000000" />
  <path
     d="m 124.42688,231.70674 a 19.035886,19.035886 0 0 1 1,38"
     id="e347_circleArc"
     style="fill:none;stroke:#000000;stroke-width:4px"
     inkscape:connector-curvature="0" />
  <path
     style="fill:#000000"
     d="m 342.91636,127.1909 c -0.59393,-0.0487 -1.91512,-0.51855 -3.13097,-1.11341 -5.02295,-2.45752 -8.95986,-6.93229 -11.51132,-13.08401 -2.27227,-5.47859 -2.82478,-10.93902 -1.59743,-15.78722 0.26426,-1.04387 0.41594,-1.51262 0.80872,-2.49921 0.48563,-1.21981 1.04374,-2.21447 1.30334,-2.32276 0.17064,-0.0712 0.35247,0.0149 0.43096,0.20422 0.0573,0.13839 0.034,0.2313 -0.22614,0.89783 -1.72351,4.41594 -1.73874,9.34283 -0.0462,14.96478 0.40025,1.32951 0.7178,2.20616 1.357,3.7462 1.49981,3.61356 3.26196,6.5381 5.40433,8.96929 1.98564,2.25335 4.1535,3.87511 6.65553,4.97901 0.85334,0.37649 0.95448,0.43633 1.025,0.60634 0.11485,0.27692 -0.0931,0.47007 -0.47276,0.43894 z m 22.0519,-9.12995 c -0.17635,-0.0121 -0.32355,-0.15783 -0.32872,-0.32547 -0.002,-0.0743 0.12025,-0.45286 0.2723,-0.84121 0.9369,-2.39295 1.35808,-4.90753 1.28034,-7.644 -0.0736,-2.59148 -0.52787,-5.0265 -1.52784,-8.19014 -0.2791,-0.88298 -1.85102,-4.67249 -2.28754,-5.51416 -1.80371,-3.47952 -3.72536,-6.08696 -5.97799,-8.11138 -1.65573,-1.48798 -3.10857,-2.41649 -5.14206,-3.28629 -0.63167,-0.27033 -0.70506,-0.32115 -0.77267,-0.53523 -0.0393,-0.12447 0.0624,-0.30508 0.20544,-0.36474 0.2474,-0.1032 1.42368,0.23159 2.61135,0.74322 4.41174,1.90056 8.08721,5.38734 10.74882,10.19704 0.64566,1.16675 0.96267,1.83362 1.5698,3.3023 0.64818,1.5679 0.94351,2.42575 1.33313,3.87219 1.08462,4.02664 1.18419,8.13188 0.28597,11.79201 -0.40984,1.67007 -1.16865,3.58843 -1.77362,4.48386 -0.24178,0.35788 -0.33064,0.43337 -0.49671,0.422 z m -18.01048,-2.28051 c -0.42425,0.0707 -0.69046,0.0748 -1.09721,0.0168 -2.46491,-0.35171 -4.85824,-3.58239 -6.15476,-8.30809 -0.42838,-1.56134 -0.73724,-3.4111 -0.86326,-5.16974 -0.37133,-5.18267 0.61181,-10.04396 2.53647,-12.54199 0.64892,-0.84224 1.20941,-1.29338 2.03223,-1.63576 0.82564,-0.34355 1.40909,-0.38808 2.23982,-0.17091 1.68669,0.44091 3.42018,2.36264 4.68328,5.19183 0.89826,2.01199 1.49564,4.3322 1.80133,6.99632 0.66709,5.81388 -0.41031,11.46009 -2.68488,14.07044 -0.5906,0.67779 -0.90258,0.91549 -1.63367,1.24471 -0.39546,0.17809 -0.66425,0.27393 -0.85935,0.30645 z m 1.02443,-1.34562 c 0.30765,-0.25202 0.68128,-0.8038 0.92518,-1.36637 0.79889,-1.8426 1.09894,-5.27847 0.7669,-8.78174 -0.0667,-0.70407 -0.39715,-3.22175 -0.43469,-3.31228 -0.0167,-0.0404 -7.20536,2.98081 -7.21349,3.03157 -0.005,0.0276 0.0791,0.59205 0.18555,1.25434 0.46231,2.87558 0.96511,4.73422 1.76751,6.53383 0.77967,1.74858 1.47647,2.68532 2.22911,2.99666 0.33769,0.1397 0.54887,0.16881 0.83321,0.11487 0.24262,-0.0461 0.70396,-0.27696 0.94072,-0.47088 z m 0.98053,-15.50003 c -0.15844,-1.03503 -0.67874,-3.62626 -0.86364,-4.30108 -0.51439,-1.8774 -1.37583,-3.85506 -2.10186,-4.82536 -0.50695,-0.67753 -1.21748,-1.0884 -1.79275,-1.03666 -0.36258,0.0326 -0.91566,0.29469 -1.20928,0.57301 -0.74367,0.70494 -1.26664,2.16794 -1.53873,4.3046 -0.3093,2.42874 -0.2324,4.63376 0.29762,8.53385 l 0.0734,0.54039 3.62418,-1.5248 3.62417,-1.5248 -0.11315,-0.73915 z m -46.13698,34.74922 c -0.14366,-0.0472 -0.17636,-0.0838 -0.26002,-0.29084 -0.11333,-0.28056 -0.0899,-0.4856 0.074,-0.64829 0.0734,-0.0728 0.45319,-0.26695 1.07154,-0.54763 1.75556,-0.79692 2.14595,-1.15799 2.12089,-1.96168 -0.0135,-0.4344 -3.25025,-21.98362 -3.33131,-22.17906 -0.12341,-0.29754 -0.39415,-0.37634 -0.87275,-0.25402 -0.11747,0.0301 -0.69897,0.2383 -1.29222,0.46283 -0.96863,0.3666 -1.09372,0.40442 -1.22651,0.37082 -0.1969,-0.0498 -0.31248,-0.21218 -0.35494,-0.49856 -0.0233,-0.15705 -0.007,-0.27821 0.0497,-0.37385 l 0.0841,-0.14149 6.2554,-2.6247 c 4.37063,-1.83386 6.41086,-2.6725 6.77136,-2.78333 3.60644,-1.10876 6.76336,0.0226 7.91452,2.83636 0.82531,2.0173 0.38635,4.56199 -1.20671,6.9954 -0.80699,1.23267 -1.92313,2.39612 -3.1244,3.25682 -1.00967,0.72342 -0.95514,0.69687 -4.71229,2.29437 l -3.48062,1.47994 0.32598,2.14698 c 0.1793,1.18084 0.51947,3.42087 0.75594,4.97785 0.23646,1.55698 0.46559,2.92267 0.50916,3.03487 0.10384,0.26736 0.20755,0.34552 0.47895,0.36096 0.35405,0.0202 0.62368,-0.053 1.62384,-0.44094 1.09396,-0.42424 1.20067,-0.45481 1.35894,-0.38935 0.25538,0.10565 0.35474,0.66116 0.16393,0.91654 -0.0921,0.12327 -0.22943,0.18188 -2.60604,1.11221 -1.95567,0.76557 -2.85127,1.13796 -4.06202,1.68904 -0.85426,0.38883 -1.84815,0.82975 -2.20864,0.97984 -0.63052,0.26251 -0.6617,0.27084 -0.81978,0.21891 z m 10.19676,-18.13663 c 1.50987,-0.81055 2.67934,-1.95236 3.38183,-3.30183 0.40907,-0.78585 0.59756,-1.77738 0.56324,-2.96292 -0.0193,-0.66956 -0.16431,-1.82276 -0.3113,-2.47712 -0.17349,-0.77234 -0.55505,-1.7234 -0.85385,-2.12831 -0.69689,-0.94437 -1.80573,-1.37559 -3.14757,-1.22406 -0.94759,0.10699 -1.05393,0.14272 -3.91854,1.31685 -1.8492,0.75794 -2.71426,1.13015 -2.86268,1.23173 -0.30055,0.20571 -0.41613,0.40321 -0.44037,0.75253 -0.0148,0.21282 0.21501,1.8748 0.80245,5.8039 0.45274,3.02813 0.82465,5.51078 0.82647,5.51699 0.011,0.0379 5.58269,-2.32503 5.96032,-2.52776 z"
     id="path3350"
     inkscape:connector-curvature="0" />
  <path
     style="fill:#000000"
     d="m 545.89983,203.32651 c -0.35598,-0.11664 -0.64957,-0.36715 -0.77943,-0.66508 -0.0396,-0.0909 -0.0656,-0.276 -0.0672,-0.47961 -0.003,-0.33058 -0.002,-0.33352 0.32377,-1.01535 1.81804,-3.8085 3.64944,-8.29856 4.70766,-11.54183 0.38892,-1.19199 0.8719,-2.89619 0.83207,-2.93602 -0.0194,-0.0194 -0.75986,-0.0271 -1.64543,-0.017 -1.29488,0.0147 -1.67908,0.0321 -1.96238,0.0888 -0.76452,0.15307 -1.48399,0.45312 -2.15951,0.9006 -0.5447,0.36084 -1.43726,1.26459 -1.89834,1.92215 -0.64103,0.91418 -0.74506,1.00451 -1.09621,0.95185 -0.22232,-0.0333 -0.34745,-0.12878 -0.39746,-0.30313 -0.0358,-0.12497 -0.0166,-0.18321 0.19861,-0.60077 0.54158,-1.05084 1.69273,-2.64794 2.55494,-3.5447 0.99066,-1.03035 2.06788,-1.65225 3.2056,-1.85065 0.50112,-0.0874 16.38929,-0.0908 16.75985,-0.004 0.4991,0.11745 0.73583,0.42587 0.73583,0.95865 0,0.16234 -0.0282,0.38998 -0.0626,0.50587 -0.0806,0.27124 -0.36911,0.59499 -0.655,0.73486 -0.4522,0.22124 -0.56305,0.22837 -3.55896,0.22915 -1.78724,4.7e-4 -2.77286,0.0153 -2.78934,0.0419 -0.0344,0.0557 -0.20358,0.92876 -0.35242,1.81911 -0.52424,3.13587 -0.57733,6.42247 -0.14303,8.85264 0.20596,1.15243 0.48972,2.159 0.92297,3.27399 0.25953,0.6679 0.27384,0.72288 0.27532,1.05766 10e-4,0.31585 -0.0126,0.38182 -0.13218,0.62478 -0.17333,0.3521 -0.5352,0.70057 -0.90926,0.87561 -0.22092,0.10339 -0.34921,0.1344 -0.61284,0.14813 -0.63617,0.0331 -0.8983,-0.13037 -1.20382,-0.75094 -0.23206,-0.47135 -0.35606,-0.88516 -0.53622,-1.78947 -0.22134,-1.11101 -0.2511,-1.46711 -0.2511,-3.00461 0,-1.45439 0.0328,-1.95651 0.21152,-3.24378 0.18327,-1.31962 0.64362,-3.63736 1.33921,-6.74265 0.13515,-0.60332 0.23672,-1.11151 0.22571,-1.12932 -0.011,-0.0178 -1.11588,-0.0324 -2.45528,-0.0324 l -2.43527,0 -1.15112,4.54835 c -2.10437,8.31494 -2.56765,9.96806 -3.1028,11.0718 -0.21321,0.43973 -0.56188,0.82476 -0.8687,0.95926 -0.23352,0.10237 -0.86213,0.1528 -1.06719,0.0856 z m 27.6631,-0.0298 c -2.08806,-0.37011 -3.67017,-1.98758 -4.28803,-4.38386 -0.20389,-0.79078 -0.265,-1.34429 -0.26592,-2.40873 -10e-4,-1.35771 0.0617,-1.77346 0.61403,-4.0614 0.24888,-1.03093 2.08275,-8.33895 3.42666,-13.65542 0.38529,-1.52418 0.76444,-3.12921 0.80449,-3.40556 0.0355,-0.24501 -0.0342,-0.46371 -0.18116,-0.56835 -0.23368,-0.16639 -0.55667,-0.21898 -1.65929,-0.27016 -0.67341,-0.0313 -1.09562,-0.0679 -1.15449,-0.1003 -0.19609,-0.10779 -0.26862,-0.42414 -0.17474,-0.76217 0.0668,-0.24065 0.2241,-0.3968 0.468,-0.46468 0.28593,-0.0796 4.05398,-0.43156 5.31145,-0.49614 0.47043,-0.0242 0.65306,0.0199 0.77732,0.18755 0.0443,0.0598 0.0797,0.17167 0.0786,0.24866 -10e-4,0.077 -0.71896,3.04926 -1.59533,6.60506 -0.87636,3.5558 -1.58996,6.46892 -1.58577,6.47361 0.004,0.005 0.21203,-0.17909 0.46187,-0.4084 1.24673,-1.14426 2.39326,-1.78174 3.72824,-2.07292 0.37838,-0.0825 1.5339,-0.0697 1.95893,0.0218 1.93666,0.41687 3.36443,1.69429 4.15175,3.71456 0.36093,0.92615 0.5012,1.68466 0.52979,2.86479 0.0332,1.37076 -0.0821,2.28944 -0.45206,3.6007 -0.48599,1.72263 -1.32568,3.41222 -2.42006,4.86953 -1.64258,2.18732 -3.84831,3.80735 -5.89354,4.32861 -0.81966,0.2089 -1.93023,0.26912 -2.64074,0.14318 z m 1.68613,-0.97056 c 1.53402,-0.37014 3.06696,-1.84274 4.23929,-4.0724 0.81666,-1.55322 1.89994,-5.38347 2.26518,-8.00922 0.12151,-0.87356 0.1309,-2.1952 0.02,-2.81639 -0.16878,-0.94548 -0.4597,-1.57599 -0.9606,-2.08191 -0.53036,-0.53567 -1.09891,-0.74923 -1.86244,-0.69956 -1.36263,0.0886 -2.76253,0.90134 -4.17959,2.42643 -0.45182,0.48626 -1.10627,1.32739 -1.21135,1.55688 -0.11538,0.252 -0.31906,1.02553 -0.78025,2.96317 -0.1926,0.80917 -0.45407,1.90387 -0.58106,2.43267 -0.50647,2.10919 -0.62587,2.95715 -0.5911,4.19818 0.0155,0.55401 0.0496,0.95355 0.10837,1.27056 0.40786,2.19992 1.73705,3.26507 3.53354,2.83159 z m -54.25638,0.17399 c 0,-0.66255 0.0299,-0.72364 0.73682,-1.5064 0.33622,-0.37228 1.58079,-1.75769 2.76572,-3.07868 5.99875,-6.68761 5.81998,-6.48542 6.45125,-7.29582 2.27215,-2.91689 3.43225,-5.71495 3.43225,-8.27827 0,-2.31783 -0.81793,-4.45478 -2.18476,-5.70794 -0.70202,-0.64363 -1.62017,-1.09367 -2.60124,-1.27502 -0.51488,-0.0952 -1.57184,-0.0928 -2.06757,0.005 -2.05327,0.40374 -3.72673,1.76489 -4.60049,3.74192 -0.28222,0.63858 -0.31131,0.57313 0.25735,0.57903 0.54989,0.006 0.83588,0.0704 1.22917,0.27807 0.8809,0.46514 1.32415,1.59631 1.04195,2.65903 -0.19388,0.73007 -0.8285,1.33043 -1.61996,1.53249 -0.77764,0.19853 -1.71549,-0.0541 -2.23928,-0.60327 -0.41568,-0.43579 -0.59921,-0.98611 -0.60049,-1.80061 -0.003,-1.68182 0.6359,-3.42223 1.77245,-4.83097 0.33947,-0.42076 1.11805,-1.16225 1.53048,-1.45756 1.17102,-0.83847 2.48727,-1.33369 3.94666,-1.48488 0.57294,-0.0593 1.87102,-0.0268 2.46804,0.0619 1.46814,0.21807 2.8509,0.72522 3.95779,1.4516 1.22095,0.80123 2.20957,1.90939 2.84971,3.19427 0.31712,0.63651 0.61686,1.63304 0.7352,2.44425 0.0786,0.53874 0.0899,1.80937 0.021,2.36312 -0.1418,1.1401 -0.49666,2.16238 -1.11095,3.20048 -1.02525,1.73256 -2.71526,3.49263 -7.03297,7.3245 -0.94407,0.83784 -3.64507,3.41035 -5.44973,5.19048 l -0.35227,0.34748 5.2218,-0.0168 c 5.50192,-0.0177 5.9055,-0.031 6.51702,-0.21495 0.19534,-0.0588 0.22821,-0.0862 0.3198,-0.26693 0.23095,-0.45578 0.48571,-1.47347 0.72597,-2.90006 0.0707,-0.4198 0.13814,-0.7788 0.14987,-0.79778 0.0117,-0.019 0.25334,-0.0345 0.53691,-0.0345 0.50611,0 0.51559,0.002 0.51559,0.0927 0,0.051 -0.14051,0.96013 -0.31224,2.02034 -0.17174,1.06022 -0.43411,2.68297 -0.58305,3.6061 -0.14893,0.92314 -0.28086,1.7204 -0.29316,1.77169 l -0.0224,0.0932 -8.05614,0 -8.05614,0 0,-0.4069 z"
     id="path3358"
     inkscape:connector-curvature="0" />
  <path
     style="fill:#000000"
     d="m 507.28581,310.27449 c -0.61083,-0.19074 -0.91729,-0.5721 -0.926,-1.15232 -0.004,-0.29859 0.006,-0.32702 0.49632,-1.37626 1.7196,-3.67811 3.04809,-6.84754 4.0771,-9.72694 0.60324,-1.68801 1.44438,-4.46531 1.3737,-4.53576 -0.0643,-0.0641 -3.32953,0.0299 -3.73401,0.1075 -0.7663,0.147 -1.61739,0.50594 -2.31341,0.97564 -0.55639,0.37547 -1.42264,1.27032 -1.97498,2.04015 -0.26434,0.36844 -0.53321,0.7039 -0.59748,0.74547 -0.0757,0.049 -0.2025,0.0754 -0.36022,0.0752 -0.21767,-3.6e-4 -0.25761,-0.0156 -0.37818,-0.14442 -0.11191,-0.11956 -0.13072,-0.16974 -0.11077,-0.29545 0.0754,-0.47485 1.5208,-2.60259 2.57371,-3.78858 1.04161,-1.17326 2.27496,-1.90983 3.6224,-2.16332 0.24961,-0.047 2.02783,-0.0732 8.70588,-0.12849 7.93722,-0.0657 8.40633,-0.0654 8.65275,0.006 0.32024,0.0932 0.5837,0.31003 0.65703,0.54078 0.0753,0.23691 0.0707,0.64583 -0.0102,0.91851 -0.11616,0.39119 -0.48185,0.7089 -1.02191,0.88785 -0.13862,0.0459 -0.86242,0.0702 -3.20612,0.1077 l -3.02709,0.0484 -0.036,0.17454 c -0.3378,1.63882 -0.57257,3.42526 -0.66962,5.09538 -0.0602,1.03531 8.1e-4,3.50181 0.10675,4.31829 0.21916,1.68909 0.50516,2.73406 1.35008,4.9329 0.13652,0.3553 0.15532,0.44859 0.13555,0.67263 -0.0519,0.58837 -0.4598,1.12427 -1.07878,1.4174 -0.32013,0.15159 -0.37689,0.16424 -0.75024,0.16718 -0.43846,0.003 -0.57218,-0.0399 -0.80567,-0.26137 -0.30606,-0.29028 -0.55541,-0.8393 -0.78017,-1.71783 -0.32718,-1.27885 -0.40443,-1.93821 -0.41684,-3.55761 -0.0197,-2.57712 0.19946,-4.04093 1.47352,-9.8405 0.15353,-0.69886 0.27888,-1.30266 0.27856,-1.34178 -5.4e-4,-0.065 -0.21871,-0.0693 -2.51219,-0.0503 -2.35287,0.0195 -2.51422,0.0257 -2.55329,0.0979 -0.0229,0.0424 -0.29904,1.09831 -0.61357,2.34644 -0.31453,1.24812 -0.71588,2.83897 -0.89189,3.53521 -0.17601,0.69624 -0.51777,2.04876 -0.75947,3.0056 -0.75866,3.00333 -1.15183,4.41243 -1.58549,5.6823 -0.29199,0.85498 -0.40882,1.1211 -0.63675,1.45038 -0.35799,0.51715 -0.70117,0.7182 -1.2763,0.74771 -0.2003,0.0103 -0.41481,0.003 -0.47668,-0.0164 z m 28.74525,-0.24583 c -1.95275,-0.27962 -3.48219,-1.40237 -4.39942,-3.22959 -1.30751,-2.60469 -1.05813,-6.27515 0.65374,-9.62237 0.77929,-1.52373 1.62999,-2.6928 2.7974,-3.84431 1.64611,-1.62368 3.40153,-2.62317 5.23655,-2.98155 2.30409,-0.44999 3.99841,0.28048 5.18123,2.23379 l 0.21181,0.34978 0.0925,-0.30265 c 0.21123,-0.69128 0.58405,-1.16831 1.11592,-1.42788 0.26811,-0.13084 0.33882,-0.14618 0.68687,-0.14906 0.33313,-0.003 0.42415,0.0136 0.6438,0.11567 0.30647,0.14244 0.50798,0.36143 0.59994,0.65202 0.13859,0.4379 0.1626,0.32002 -0.952,4.67322 -0.46699,1.8239 -0.95682,3.77773 -1.08851,4.34184 -0.13168,0.5641 -0.41275,1.71315 -0.6246,2.55344 -0.59751,2.36997 -0.6189,2.48551 -0.63404,3.42473 -0.0102,0.63437 0.003,0.86864 0.0605,1.10032 0.18428,0.73847 0.536,1.06559 1.18413,1.1013 1.35342,0.0746 2.27676,-1.16341 3.14743,-4.21997 0.12997,-0.45628 0.28843,-1.04041 0.35213,-1.29807 0.15226,-0.61587 0.21739,-0.68864 0.61932,-0.69196 0.25845,-0.002 0.3107,0.0117 0.41296,0.1093 0.10741,0.10254 0.11499,0.13274 0.0918,0.36602 -0.0609,0.61367 -0.69486,2.83187 -1.07551,3.76343 -0.82908,2.02905 -2.05927,2.98993 -3.74576,2.92576 -1.82639,-0.0695 -3.34709,-1.21737 -3.82577,-2.88782 -0.042,-0.14655 -0.0828,-0.27452 -0.0907,-0.28438 -0.008,-0.01 -0.2867,0.26212 -0.61957,0.6044 -0.89279,0.91805 -1.72962,1.55883 -2.59744,1.98893 -0.95145,0.47156 -1.52935,0.62295 -2.4929,0.65309 -0.37017,0.0116 -0.79395,0.004 -0.94174,-0.0174 z m 1.96492,-1.08072 c 0.9973,-0.29245 1.93315,-0.86929 2.89752,-1.78598 0.47147,-0.44816 1.40011,-1.50463 1.62815,-1.85227 0.22245,-0.33912 0.0769,0.19991 2.06629,-7.65247 0.30372,-1.19881 0.56934,-2.28727 0.59028,-2.4188 0.0888,-0.5575 -0.35832,-1.8378 -0.91788,-2.62858 -0.69019,-0.97538 -1.53693,-1.42846 -2.64129,-1.41332 -1.01037,0.0138 -1.931,0.41722 -2.95911,1.29652 -0.71603,0.6124 -1.61623,1.76663 -2.15804,2.76704 -0.98642,1.82137 -2.28017,6.66283 -2.46841,9.23727 -0.0663,0.90672 0.0511,1.83118 0.33372,2.62878 0.35561,1.00344 1.07341,1.71812 1.93013,1.92171 0.40347,0.0959 1.18843,0.0497 1.69864,-0.0999 z m -56.56665,0.73123 c -0.004,-0.4897 0.0577,-0.74967 0.22956,-0.96709 0.0783,-0.0991 0.76367,-0.85943 1.52296,-1.68967 2.52374,-2.75959 7.22384,-7.93628 7.67853,-8.45714 2.15878,-2.47294 3.63606,-5.14543 4.08087,-7.3825 0.1671,-0.84042 0.20657,-1.3575 0.17131,-2.24447 -0.0552,-1.38975 -0.35737,-2.5865 -0.91793,-3.63597 -0.89774,-1.68076 -2.25212,-2.68974 -4.0486,-3.01612 -0.4878,-0.0886 -1.59624,-0.0899 -2.07667,-0.002 -2.26119,0.41193 -4.05412,1.90381 -4.96224,4.12902 l -0.11148,0.27317 0.4609,-0.004 c 0.84353,-0.007 1.42133,0.20345 1.89522,0.69025 0.44354,0.45562 0.63944,1.00608 0.60734,1.70662 -0.0413,0.90206 -0.45158,1.52683 -1.25112,1.90529 -0.59972,0.28388 -1.08103,0.33744 -1.70008,0.1892 -1.13596,-0.27201 -1.73759,-1.09107 -1.75072,-2.38341 -0.0111,-1.09486 0.28733,-2.3227 0.8192,-3.3703 1.55551,-3.06379 4.77493,-4.81551 8.35999,-4.54875 2.03575,0.15148 3.55316,0.61833 5.01703,1.54357 2.20561,1.39405 3.54192,3.61561 3.75539,6.24318 0.12662,1.55853 -0.15084,3.03339 -0.818,4.34821 -0.98708,1.94529 -2.6063,3.67385 -7.33436,7.8296 -1.22025,1.07254 -6.09248,5.66616 -6.14414,5.7928 -0.0208,0.0509 9.01865,-0.0318 10.15733,-0.0929 1.06387,-0.0571 1.59692,-0.11577 1.9392,-0.21352 0.21128,-0.0603 0.24544,-0.0879 0.33934,-0.27369 0.26607,-0.52648 0.5675,-1.77211 0.82091,-3.39243 l 0.0546,-0.34893 0.54842,-0.0168 0.54842,-0.0168 9e-4,0.10867 c 4.9e-4,0.0598 -0.0753,0.58536 -0.16845,1.16797 -0.0931,0.58262 -0.27426,1.72664 -0.40247,2.54228 -0.12821,0.81563 -0.31589,2.00799 -0.41706,2.64968 l -0.18395,1.1667 -8.35854,0.0693 -8.35854,0.0692 -0.003,-0.3681 z"
     id="path3360"
     inkscape:connector-curvature="0" />
  <path
     style="fill:#000000"
     d="m 344.20356,312.97235 c -1.88543,-0.15214 -3.49725,-1.26473 -4.40211,-3.03862 -0.75966,-1.48924 -1.01526,-3.19376 -0.78587,-5.24075 0.10721,-0.95671 0.43864,-2.25407 0.82359,-3.2239 0.0534,-0.13446 0.12423,-0.31322 0.15748,-0.39726 0.12152,-0.30714 0.56979,-1.20251 0.8032,-1.60431 1.75618,-3.0231 4.37948,-5.21901 6.98373,-5.84593 0.41467,-0.0998 0.43968,-0.10445 0.85563,-0.15848 1.9818,-0.2574 3.52733,0.57076 4.55097,2.43863 0.072,0.1313 0.13717,0.2324 0.14491,0.22466 0.008,-0.008 0.034,-0.10142 0.0585,-0.20818 0.13146,-0.57481 0.48769,-1.11415 0.91763,-1.38931 0.63601,-0.40704 1.56665,-0.28306 1.9073,0.2541 0.19095,0.30109 0.22506,0.61906 0.12108,1.12874 -0.0572,0.2803 -0.34559,1.43811 -0.69924,2.80709 -0.0825,0.31934 -0.23317,0.90376 -0.33483,1.29873 -0.10167,0.39496 -0.23441,0.91064 -0.29499,1.14594 -0.25444,0.98838 -0.59593,2.35082 -0.6855,2.73496 -0.0529,0.2269 -0.12515,0.5363 -0.16055,0.68757 -0.0354,0.15126 -0.17368,0.70818 -0.30729,1.23761 -0.81776,3.24035 -0.83587,3.33776 -0.80682,4.33928 0.0188,0.64731 0.0386,0.78607 0.16105,1.12566 0.065,0.18029 0.11743,0.2619 0.26774,0.4167 0.25113,0.25862 0.43485,0.32974 0.85921,0.3326 0.33676,0.002 0.50702,-0.0401 0.82507,-0.20528 0.23874,-0.124 0.69388,-0.57271 0.89506,-0.88242 0.55034,-0.84724 1.01698,-2.12421 1.57071,-4.29827 0.11065,-0.43445 0.14314,-0.52218 0.22743,-0.61409 l 0.0983,-0.10723 0.27532,0 c 0.2631,0 0.27948,0.004 0.36917,0.0899 0.15132,0.14501 0.16312,0.24718 0.0757,0.65503 -0.23325,1.08796 -0.65723,2.53247 -1.00563,3.42624 -0.40495,1.03881 -1.06793,1.94455 -1.75023,2.3911 -0.54248,0.35504 -1.02559,0.49246 -1.71843,0.48879 -0.58893,-0.003 -1.05502,-0.0943 -1.55848,-0.30493 -1.15339,-0.4825 -2.03225,-1.54866 -2.30521,-2.79651 -0.0101,-0.0462 -0.03,-0.084 -0.0442,-0.084 -0.0142,0 -0.15658,0.14855 -0.31644,0.33012 -0.30586,0.3474 -0.90032,0.92018 -1.26093,1.21494 -1.51831,1.24108 -2.94661,1.7574 -4.51204,1.63107 z m 0.9528,-0.94699 c 1.08046,-0.13423 2.14847,-0.69297 3.25514,-1.70296 0.20087,-0.18333 0.4781,-0.45731 0.61606,-0.60885 0.47367,-0.52031 1.09999,-1.29151 1.19757,-1.47459 0.15896,-0.29823 0.16869,-0.33285 0.88932,-3.164 0.11551,-0.45379 0.28053,-1.1001 0.36671,-1.43624 0.0862,-0.33614 0.2462,-0.96182 0.35559,-1.3904 0.10939,-0.42859 0.27449,-1.07489 0.36689,-1.43625 0.61137,-2.39087 0.59673,-2.32741 0.59944,-2.59745 0.003,-0.28531 -0.1119,-0.78949 -0.27821,-1.22233 -0.0484,-0.12606 -0.11721,-0.30499 -0.15283,-0.39763 -0.0788,-0.2049 -0.33147,-0.65193 -0.50931,-0.9011 -0.30032,-0.42077 -0.74504,-0.82085 -1.1288,-1.01549 -1.01937,-0.51703 -2.26011,-0.37331 -3.43251,0.3976 -0.99118,0.65175 -2.0059,1.80477 -2.75314,3.12839 -0.57326,1.01543 -1.23188,2.94961 -1.81938,5.34298 -0.53915,2.19642 -0.74462,3.54837 -0.71056,4.67542 0.0303,1.00374 0.19111,1.70845 0.54728,2.39883 0.55191,1.06978 1.43393,1.54779 2.59074,1.40407 z m 21.53166,0.94691 c -1.33183,-0.11346 -2.35051,-0.75663 -3.19268,-2.01578 -1.38356,-2.06858 -1.91356,-5.69386 -1.425,-9.74716 0.57261,-4.75057 2.43876,-9.82104 5.02169,-13.64428 2.39263,-3.54156 5.07256,-5.51681 7.48336,-5.51561 0.38282,1.9e-4 0.96072,0.0898 1.28862,0.19985 1.08231,0.36319 1.94755,1.16889 2.6076,2.42816 0.80323,1.53244 1.27598,3.85403 1.27598,6.26601 0,1.33523 -0.14656,2.89914 -0.41367,4.41396 -0.14475,0.82093 -0.4094,2.01874 -0.58063,2.62801 -0.72725,2.58759 -1.38549,4.3135 -2.4591,6.4478 -0.53469,1.06296 -0.68792,1.33898 -1.24682,2.24604 -1.47616,2.3957 -3.17392,4.25636 -4.83046,5.29395 -1.22567,0.76771 -2.38656,1.09637 -3.52889,0.99905 z m 1.05609,-1.02015 c 0.66809,-0.19442 1.21141,-0.55564 1.87476,-1.24641 0.7734,-0.80536 1.49474,-1.86256 2.28859,-3.35416 1.09069,-2.04934 1.87714,-4.10384 2.66117,-6.95201 0.18799,-0.68291 0.53387,-2.06349 0.534,-2.13144 0,-0.0507 -0.23409,-0.0535 -4.4908,-0.0535 l -4.4909,0 -0.0307,0.11459 c -0.4613,1.72018 -0.87772,3.69294 -1.104,5.23019 -0.27386,1.86045 -0.31942,3.90843 -0.12128,5.45162 0.24265,1.88978 0.84916,2.84932 1.90767,3.01803 0.24919,0.0397 0.69085,0.005 0.97152,-0.0769 z m 7.79224,-15.21958 c 0.0445,-0.15992 0.24679,-1.03109 0.52874,-2.27659 0.54708,-2.41662 0.84117,-4.63027 0.84031,-6.32505 -10e-4,-1.94475 -0.24666,-3.35176 -0.72708,-4.16425 -0.34955,-0.59116 -0.86494,-0.91765 -1.51497,-0.95969 -1.40465,-0.0909 -2.77115,1.03779 -4.29774,3.54967 -0.95823,1.5767 -1.71699,3.193 -2.36697,5.04212 -0.16813,0.47829 -0.56606,1.71883 -0.65186,2.03212 -0.0161,0.0588 -0.0776,0.27197 -0.13669,0.47366 -0.11812,0.40329 -0.2522,0.88872 -0.46423,1.6807 -0.0765,0.28572 -0.16646,0.61575 -0.19993,0.7334 -0.0335,0.11765 -0.0608,0.23802 -0.0607,0.26749 9e-5,0.0509 0.22922,0.0532 4.51289,0.0458 l 4.5128,-0.008 0.0255,-0.0917 z"
     id="path3356"
     inkscape:connector-curvature="0" />
  <path
     style="fill:#000000"
     d="m 369.924,207.45105 c -1.42403,-0.2182 -2.43228,-0.70308 -3.35222,-1.61214 -0.82643,-0.81664 -1.5008,-2.0515 -1.82269,-3.33755 -0.33414,-1.33499 -0.40805,-2.98118 -0.20005,-4.45609 0.15267,-1.08257 0.16415,-1.12977 3.34221,-13.73855 1.62695,-6.45482 1.90237,-7.58188 1.96916,-8.05786 0.0997,-0.7107 -0.31665,-0.88561 -2.23353,-0.93826 -0.86892,-0.0239 -0.92876,-0.0295 -1.07783,-0.10168 -0.12655,-0.0613 -0.17089,-0.10591 -0.22366,-0.22522 -0.0818,-0.18498 -0.064,-0.51329 0.0406,-0.74991 0.1763,-0.39857 0.27724,-0.42976 1.83657,-0.56752 0.38772,-0.0343 1.18449,-0.10643 1.7706,-0.16039 1.71903,-0.15826 2.28083,-0.20227 2.81984,-0.22088 0.48659,-0.0168 0.5145,-0.0143 0.65551,0.0591 0.17199,0.0895 0.29535,0.25709 0.29541,0.40123 2e-5,0.0559 -0.10254,0.51485 -0.2279,1.0198 -0.12537,0.50495 -0.32544,1.31647 -0.44462,1.80339 -0.11917,0.48691 -0.34035,1.38697 -0.49149,2.00012 -0.15115,0.61315 -0.38727,1.57223 -0.52472,2.13128 -0.13745,0.55905 -0.37351,1.51812 -0.52456,2.13127 -0.15106,0.61316 -0.39262,1.59436 -0.5368,2.18047 -0.14418,0.5861 -0.38753,1.57447 -0.54078,2.19638 -0.15325,0.62192 -0.27219,1.13719 -0.26432,1.14506 0.008,0.008 0.13595,-0.10298 0.28463,-0.24633 2.04858,-1.97515 4.087,-2.81914 6.16113,-2.55096 1.37154,0.17734 2.47299,0.7202 3.45403,1.70237 0.53562,0.53623 0.90137,1.04943 1.26152,1.77011 0.46383,0.92819 0.71993,1.78799 0.87408,2.93461 0.0826,0.61455 0.0835,1.98319 0.002,2.67229 -0.14518,1.22356 -0.41018,2.32686 -0.84266,3.50841 -0.0858,0.23444 -0.17922,0.4779 -0.20757,0.54102 -0.0283,0.0631 -0.0983,0.22542 -0.15537,0.36068 -0.44327,1.04976 -1.31909,2.53189 -2.06351,3.49201 -0.98376,1.26883 -2.16462,2.40874 -3.30687,3.1922 -1.03503,0.70992 -2.17692,1.24444 -3.23175,1.5128 -0.60635,0.15425 -0.99695,0.20313 -1.70722,0.21361 -0.37871,0.006 -0.73283,0.003 -0.78694,-0.005 z m 1.04821,-1.06245 c 1.69709,-0.19441 3.51247,-1.71616 4.8833,-4.09346 0.50441,-0.87477 0.75409,-1.45156 1.18443,-2.73619 0.67616,-2.01843 1.23361,-4.23641 1.55478,-6.1861 0.40335,-2.44863 0.1954,-4.41448 -0.59006,-5.57801 -0.55602,-0.82364 -1.31798,-1.2257 -2.30981,-1.21883 -1.26589,0.009 -2.69459,0.70129 -4.09455,1.98468 -0.57094,0.52341 -1.608,1.72173 -1.95603,2.26019 -0.19068,0.29502 -0.31382,0.71884 -0.79864,2.7487 -0.0452,0.18936 -0.12814,0.5361 -0.18426,0.77054 -0.0561,0.23444 -0.13719,0.57381 -0.18017,0.75415 -0.16463,0.69082 -0.28831,1.20396 -0.44651,1.85257 -0.319,1.30787 -0.47344,2.06745 -0.60998,3.00018 -0.0845,0.57739 -0.0832,2.32259 0.002,2.90182 0.24366,1.65263 0.87823,2.75307 1.87763,3.25607 0.54717,0.2754 1.02722,0.35706 1.66768,0.28369 z m 19.2809,1.06255 c -1.48775,-0.22506 -2.6047,-0.98957 -3.50477,-2.3989 -1.17156,-1.83444 -1.81794,-5.0087 -1.69084,-8.30337 0.0984,-2.55092 0.44217,-4.76205 1.14842,-7.38694 0.38971,-1.4484 1.10079,-3.51719 1.61399,-4.69564 0.0469,-0.1076 0.15829,-0.36531 0.24764,-0.5727 1.42876,-3.31628 3.43322,-6.39651 5.49066,-8.43743 1.93921,-1.92364 3.87399,-2.90785 5.71548,-2.90742 1.70312,3.9e-4 3.06974,0.80419 4.07052,2.39416 1.16193,1.84599 1.80934,4.86019 1.73233,8.06539 -0.0584,2.43182 -0.39572,4.7014 -1.09881,7.39389 -0.34795,1.33246 -1.08132,3.51169 -1.58025,4.69577 -1.70906,4.05602 -3.65526,7.13525 -5.90276,9.3392 -1.55502,1.52488 -3.02537,2.40004 -4.60335,2.73994 -0.25319,0.0545 -0.46321,0.0725 -0.9333,0.0797 -0.33363,0.005 -0.65086,0.003 -0.70496,-0.006 z m 1.3812,-1.14651 c 1.62878,-0.46933 3.23226,-2.34148 4.99593,-5.833 0.83604,-1.65511 1.48334,-3.28038 2.10898,-5.2954 0.18787,-0.6051 0.26872,-0.88133 0.53068,-1.81323 0.16213,-0.57677 0.60674,-2.35324 0.60674,-2.42427 0,-0.055 -0.24598,-0.0578 -5.03115,-0.0578 -3.19721,0 -5.03829,0.0115 -5.05072,0.0316 -0.0633,0.10239 -0.72634,2.90059 -0.88601,3.73908 -0.0292,0.15329 -0.0734,0.37461 -0.0983,0.49183 -0.0795,0.37472 -0.27705,1.61415 -0.35893,2.25167 -0.2238,1.74239 -0.27203,3.55553 -0.13417,5.04386 0.21092,2.2772 0.80627,3.52117 1.85132,3.86828 0.41647,0.13833 0.97996,0.13732 1.46561,-0.003 z m 8.72091,-17.05499 c 0.0114,-0.0496 0.048,-0.20083 0.0812,-0.33609 0.0332,-0.13525 0.0913,-0.37871 0.12898,-0.54101 0.0377,-0.16231 0.0969,-0.41314 0.1316,-0.55742 0.0347,-0.14427 0.10056,-0.43937 0.14642,-0.65577 0.0459,-0.21641 0.0977,-0.45249 0.11528,-0.52462 0.2672,-1.09855 0.60328,-2.9874 0.75552,-4.24617 0.1205,-0.99631 0.13277,-1.19116 0.15182,-2.40998 0.0322,-2.06136 -0.0895,-3.26635 -0.43471,-4.3032 -0.32688,-0.98183 -0.82358,-1.54322 -1.58186,-1.78787 -0.3131,-0.10101 -0.92717,-0.0993 -1.311,0.004 -1.25609,0.33691 -2.51058,1.53525 -3.8326,3.66104 -0.38149,0.61343 -1.05331,1.81927 -1.36096,2.44278 -0.7296,1.47865 -1.38676,3.1597 -1.92909,4.93472 -0.0331,0.10821 -0.0908,0.29264 -0.12826,0.40986 -0.0826,0.25827 -0.48509,1.65644 -0.54275,1.88537 -0.0227,0.0902 -0.15369,0.58 -0.29108,1.08852 -0.13738,0.50852 -0.24979,0.94748 -0.24979,0.97547 0,0.0458 0.50934,0.0509 5.06526,0.0509 l 5.06526,0 0.0208,-0.0902 z"
     id="path3352"
     inkscape:connector-curvature="0" />
  <path
     style="fill:#000000"
     d="m 164.70024,255.09013 c -0.56351,-0.0633 -0.68597,-0.0838 -1.26603,-0.21154 -0.44393,-0.0978 -0.95523,-0.25539 -1.15016,-0.35456 -0.0235,-0.0119 -0.0536,-0.0217 -0.0669,-0.0217 -0.0564,0 -0.76793,-0.34119 -0.97906,-0.46945 -0.0871,-0.0529 -0.1632,-0.0962 -0.16903,-0.0962 -0.006,0 -0.12922,-0.0793 -0.27419,-0.17615 -1.1803,-0.78877 -2.06539,-1.80085 -2.70672,-3.09507 -0.21403,-0.43194 -0.23631,-0.48135 -0.36038,-0.79936 -0.16723,-0.42865 -0.38865,-1.20336 -0.45638,-1.59679 -0.013,-0.0755 -0.0349,-0.20085 -0.0488,-0.27863 -0.22875,-1.28645 -0.18385,-2.85882 0.1245,-4.35959 0.0408,-0.19868 0.26286,-1.06567 0.3181,-1.24208 0.0297,-0.0947 0.063,-0.20537 0.0741,-0.24595 0.0206,-0.0755 0.13515,-0.40336 0.17181,-0.49192 0.0112,-0.027 0.0317,-0.0824 0.0456,-0.12298 0.0318,-0.0928 0.26678,-0.68404 0.31771,-0.79935 0.14859,-0.33648 0.6298,-1.28542 0.81695,-1.61102 0.55941,-0.97325 1.33245,-2.03762 2.12577,-2.92689 0.66273,-0.74288 1.86161,-1.82969 2.55039,-2.31199 0.0773,-0.0541 0.24403,-0.17188 0.37056,-0.26171 0.78248,-0.55551 1.92769,-1.17483 2.85338,-1.54307 0.31875,-0.1268 0.8997,-0.33159 1.05374,-0.37146 0.0473,-0.0122 0.12482,-0.033 0.17217,-0.0462 0.14834,-0.0412 0.5725,-0.14752 0.70097,-0.17568 0.0676,-0.0148 0.16725,-0.0367 0.22136,-0.0487 0.81311,-0.17975 1.9842,-0.26182 2.80648,-0.19667 0.608,0.0482 1.32991,0.1724 1.70683,0.29371 0.0338,0.0109 0.11129,0.0339 0.17217,0.0511 0.16863,0.0477 0.5589,0.18408 0.73786,0.25777 1.04232,0.42919 1.86663,0.9719 2.63019,1.73168 0.33811,0.33644 0.42233,0.4295 0.66934,0.73964 0.16,0.20089 0.63578,0.88874 0.63578,0.91917 0,0.006 0.0462,0.0863 0.10269,0.17897 0.14307,0.23478 0.45992,0.89577 0.60545,1.26304 0.10956,0.27647 0.281,0.78457 0.35271,1.04532 0.0149,0.0541 0.036,0.12605 0.0469,0.15987 0.12415,0.38569 0.31714,1.39877 0.39125,2.05374 0.0991,0.87569 0.10488,1.03499 0.1175,3.22632 0.009,1.60502 0.0198,2.16555 0.0404,2.15651 0.0559,-0.0244 0.69288,-0.8947 1.11352,-1.52131 0.25814,-0.38454 0.32374,-0.48829 0.66872,-1.05762 0.20589,-0.33977 0.24676,-0.40943 0.36801,-0.62719 0.0339,-0.0609 0.10818,-0.19369 0.16507,-0.29515 0.38187,-0.68103 0.92671,-1.78705 1.2722,-2.58254 0.0676,-0.15557 0.14765,-0.33819 0.17796,-0.40583 0.0568,-0.12667 0.54531,-1.37012 0.63295,-1.61102 0.0271,-0.0744 0.0591,-0.15741 0.0713,-0.18446 0.0508,-0.11325 0.51565,-1.53321 0.58779,-1.79549 0.1607,-0.58425 0.33437,-1.12779 0.38835,-1.21548 0.10209,-0.16582 0.19335,-0.20549 0.4737,-0.2059 0.19962,-3e-4 0.25249,0.009 0.35449,0.0594 0.23988,0.11963 0.3251,0.31329 0.26919,0.61179 -0.0321,0.17139 -0.24496,1.05396 -0.2788,1.15599 -0.0112,0.0338 -0.0343,0.1113 -0.0514,0.17217 -0.0896,0.31981 -0.52357,1.64279 -0.6213,1.89387 -0.0342,0.0879 -0.14783,0.38123 -0.25247,0.65178 -0.10463,0.27056 -0.21207,0.54172 -0.23875,0.6026 -0.0267,0.0609 -0.0626,0.14388 -0.0799,0.18446 -0.0592,0.139 -0.21799,0.49597 -0.30981,0.69655 -0.0391,0.0855 -0.0712,0.15979 -0.0712,0.1651 0,0.0193 -0.68983,1.40804 -0.82428,1.65941 -0.27857,0.52077 -0.35279,0.6562 -0.47625,0.86894 -0.0693,0.11943 -0.12602,0.22067 -0.12602,0.22498 0,0.004 -0.10669,0.18328 -0.23709,0.39774 -0.13039,0.21445 -0.26683,0.43972 -0.30318,0.50059 -0.19908,0.33337 -1.00293,1.524 -1.32844,1.96765 -0.20246,0.27594 -0.56977,0.75784 -0.78738,1.03302 -0.39351,0.49761 -0.47402,0.63226 -0.54411,0.91004 -0.0435,0.17245 -0.0435,2.23142 0,2.80391 0.10146,1.33496 0.28833,2.22117 0.59902,2.8408 0.2209,0.44054 0.49465,0.67923 0.86091,0.75065 0.26063,0.0508 0.84156,-0.0795 1.23606,-0.27722 0.3872,-0.19408 0.8519,-0.58555 1.14168,-0.96177 0.20458,-0.26559 0.5109,-0.8039 0.61785,-1.08579 0.0103,-0.027 0.075,-0.16751 0.14386,-0.31213 0.0872,-0.18318 0.15004,-0.28188 0.20709,-0.32541 0.30864,-0.2354 0.8294,-0.16274 1.00272,0.13991 0.14156,0.24721 0.017,0.73767 -0.36051,1.41997 -0.095,0.17172 -0.39475,0.60634 -0.5428,0.78706 -0.17228,0.21032 -0.7103,0.72652 -0.92424,0.88679 -0.82048,0.61461 -1.59755,0.88265 -2.56179,0.88365 -0.47796,4.9e-4 -0.74102,-0.0305 -1.15883,-0.13646 -1.37642,-0.3491 -2.51464,-1.39974 -3.17576,-2.9314 -0.0219,-0.0507 -0.0564,-0.12993 -0.0768,-0.176 -0.0735,-0.16671 -0.20758,-0.56149 -0.28056,-0.82627 -0.041,-0.14881 -0.0875,-0.28403 -0.10321,-0.3005 -0.0222,-0.0233 -0.0973,0.0235 -0.33599,0.20919 -0.67255,0.52329 -1.44311,1.06096 -2.11515,1.47589 -0.38105,0.23528 -0.78272,0.47239 -0.80021,0.47239 -0.005,0 -0.0679,0.0348 -0.13949,0.0772 -0.35763,0.21218 -1.46468,0.74722 -1.93184,0.93368 -0.0304,0.0121 -0.0802,0.032 -0.11068,0.0442 -0.0304,0.0122 -0.10515,0.044 -0.16602,0.0708 -0.21194,0.0931 -1.2323,0.43992 -1.53723,0.5225 -0.61778,0.16732 -1.23859,0.30613 -1.6971,0.37948 -0.53341,0.0853 -0.68529,0.10408 -1.30357,0.16096 -0.31801,0.0292 -1.68879,0.0276 -1.95535,-0.002 z m 1.74629,-1.1423 c 0.68288,-0.0473 1.01602,-0.0867 1.53723,-0.18189 0.2532,-0.0462 0.90145,-0.19071 1.0945,-0.24392 0.0473,-0.013 0.1691,-0.0463 0.27056,-0.0739 0.32758,-0.0891 1.02551,-0.32477 1.38965,-0.46923 0.15194,-0.0603 0.4631,-0.1915 0.59706,-0.25179 0.0849,-0.0382 0.15912,-0.0695 0.16496,-0.0695 0.0199,0 1.00804,-0.49044 1.19334,-0.59227 0.54219,-0.29796 1.05184,-0.60868 1.62331,-0.98968 0.31522,-0.21017 0.40903,-0.27683 0.87314,-0.62054 0.38074,-0.28196 1.11392,-0.87734 1.35855,-1.1032 0.0241,-0.0223 0.0228,-0.16776 -0.007,-0.70392 -0.0266,-0.4875 -0.0434,-1.64582 -0.06,-4.15615 -0.0127,-1.91416 -0.0348,-3.67951 -0.0491,-3.92301 -0.0359,-0.61136 -0.0969,-1.41666 -0.12296,-1.62331 -0.012,-0.0947 -0.0343,-0.27732 -0.0496,-0.40583 -0.0373,-0.31248 -0.10895,-0.7823 -0.14819,-0.97153 -0.0112,-0.0541 -0.0332,-0.16479 -0.0488,-0.24595 -0.0156,-0.0812 -0.0382,-0.18632 -0.0501,-0.23366 -0.0119,-0.0473 -0.0557,-0.22444 -0.0972,-0.39353 -0.10685,-0.4348 -0.27052,-0.93944 -0.39677,-1.22337 -0.0255,-0.0573 -0.0464,-0.11073 -0.0464,-0.11864 0,-0.0322 -0.25649,-0.55294 -0.36268,-0.73633 -0.59102,-1.02059 -1.37324,-1.69256 -2.34284,-2.0126 -0.51351,-0.16949 -0.89142,-0.22387 -1.54952,-0.22294 -0.65982,9.4e-4 -1.07766,0.0662 -1.77089,0.27647 -1.46381,0.44407 -2.94993,1.49017 -4.19824,2.9552 -0.50171,0.5888 -1.06725,1.37643 -1.38312,1.92627 -0.14575,0.25371 -0.50262,0.96366 -0.6021,1.19781 -0.0258,0.0606 -0.0767,0.17665 -0.11309,0.25782 -0.0569,0.12676 -0.25145,0.62077 -0.45729,1.16119 -0.12092,0.31748 -0.51478,1.52422 -0.60038,1.83948 -0.011,0.0406 -0.0432,0.1568 -0.0715,0.25826 -0.12322,0.44175 -0.1577,0.56939 -0.22592,0.83625 -0.0641,0.25073 -0.21733,0.8959 -0.26871,1.1314 -0.1128,0.5171 -0.17957,0.85267 -0.24222,1.21749 -0.0139,0.0812 -0.0371,0.21398 -0.0515,0.29514 -0.0498,0.28061 -0.14595,0.98537 -0.18963,1.38966 -0.0533,0.49334 -0.06,1.66183 -0.0119,2.07833 0.074,0.64079 0.17233,1.10768 0.33746,1.60193 0.1182,0.35378 0.14684,0.42377 0.32373,0.79104 0.48134,0.99939 1.38316,1.79752 2.40487,2.12838 0.37398,0.1211 0.68073,0.18296 1.11911,0.22568 0.42411,0.0413 0.61914,0.0411 1.22978,-0.001 z"
     id="path3354"
     inkscape:connector-curvature="0" />
</svg>
