<?xml version="1.0" encoding="UTF-8" standalone="no"?>
<!-- Created with Inkscape (http://www.inkscape.org/) -->

<svg
   xmlns:dc="http://purl.org/dc/elements/1.1/"
   xmlns:cc="http://creativecommons.org/ns#"
   xmlns:rdf="http://www.w3.org/1999/02/22-rdf-syntax-ns#"
   xmlns:svg="http://www.w3.org/2000/svg"
   xmlns="http://www.w3.org/2000/svg"
   xmlns:sodipodi="http://sodipodi.sourceforge.net/DTD/sodipodi-0.dtd"
   xmlns:inkscape="http://www.inkscape.org/namespaces/inkscape"
   width="210mm"
   height="297mm"
   viewBox="0 0 744.09448819 1052.3622047"
   id="svg2"
   version="1.1"
   inkscape:version="0.91 r13725"
   sodipodi:docname="drawing.svg">
  <sodipodi:namedview
     id="base"
     pagecolor="#ffffff"
     bordercolor="#666666"
     borderopacity="1.0"
     inkscape:pageopacity="0.0"
     inkscape:pageshadow="2"
     inkscape:zoom="0.98994949"
     inkscape:cx="83.053796"
     inkscape:cy="863.63192"
     inkscape:document-units="px"
     inkscape:current-layer="layer1"
     showgrid="false"
     inkscape:window-width="1536"
     inkscape:window-height="801"
     inkscape:window-x="-8"
     inkscape:window-y="-8"
     inkscape:window-maximized="1" />
  <defs
     id="defs4">
    <marker
       inkscape:stockid="Arrow1Mend"
       orient="auto"
       refY="0.0"
       refX="0.0"
       id="Arrow1Mend"
       style="overflow:visible;"
       inkscape:isstock="true">
      <path
         id="path4242"
         d="M 0.0,0.0 L 5.0,-5.0 L -12.5,0.0 L 5.0,5.0 L 0.0,0.0 z "
         style="fill-rule:evenodd;stroke:#000000;stroke-width:1pt;stroke-opacity:1;fill:#000000;fill-opacity:1"
         transform="scale(0.4) rotate(180) translate(10,0)" />
    </marker>
    <marker
       inkscape:isstock="true"
       style="overflow:visible"
       id="marker4593"
       refX="0.0"
       refY="0.0"
       orient="auto"
       inkscape:stockid="Arrow1Mstart">
      <path
         transform="scale(0.4) translate(10,0)"
         style="fill-rule:evenodd;stroke:#000000;stroke-width:1pt;stroke-opacity:1;fill:#000000;fill-opacity:1"
         d="M 0.0,0.0 L 5.0,-5.0 L -12.5,0.0 L 5.0,5.0 L 0.0,0.0 z "
         id="path4595" />
    </marker>
    <marker
       inkscape:isstock="true"
       style="overflow:visible"
       id="marker4547"
       refX="0.0"
       refY="0.0"
       orient="auto"
       inkscape:stockid="Arrow1Mstart">
      <path
         transform="scale(0.4) translate(10,0)"
         style="fill-rule:evenodd;stroke:#000000;stroke-width:1pt;stroke-opacity:1;fill:#000000;fill-opacity:1"
         d="M 0.0,0.0 L 5.0,-5.0 L -12.5,0.0 L 5.0,5.0 L 0.0,0.0 z "
         id="path4549" />
    </marker>
    <marker
       inkscape:stockid="Arrow1Mstart"
       orient="auto"
       refY="0.0"
       refX="0.0"
       id="Arrow1Mstart"
       style="overflow:visible"
       inkscape:isstock="true"
       inkscape:collect="always">
      <path
         id="path4239"
         d="M 0.0,0.0 L 5.0,-5.0 L -12.5,0.0 L 5.0,5.0 L 0.0,0.0 z "
         style="fill-rule:evenodd;stroke:#000000;stroke-width:1pt;stroke-opacity:1;fill:#000000;fill-opacity:1"
         transform="scale(0.4) translate(10,0)" />
    </marker>
    <marker
       inkscape:stockid="Arrow1Lstart"
       orient="auto"
       refY="0.0"
       refX="0.0"
       id="Arrow1Lstart"
       style="overflow:visible"
       inkscape:isstock="true">
      <path
         id="path4233"
         d="M 0.0,0.0 L 5.0,-5.0 L -12.5,0.0 L 5.0,5.0 L 0.0,0.0 z "
         style="fill-rule:evenodd;stroke:#000000;stroke-width:1pt;stroke-opacity:1;fill:#000000;fill-opacity:1"
         transform="scale(0.8) translate(12.5,0)" />
    </marker>
    <clipPath
       id="clipPath">
      <rect
         y="180.93364"
         x="102.85714"
         height="388.57144"
         width="445.71429"
         id="rect3336"
         style="fill:#ffffff" />
    </clipPath>
  </defs>
  <metadata
     id="metadata7">
    <rdf:RDF>
      <cc:Work
         rdf:about="">
        <dc:format>image/svg+xml</dc:format>
        <dc:type
           rdf:resource="http://purl.org/dc/dcmitype/StillImage" />
        <dc:title></dc:title>
      </cc:Work>
    </rdf:RDF>
  </metadata>
  <g
     id="layer1"
     inkscape:groupmode="layer"
     inkscape:label="Layer 1">
    <path
       id="path3345"
       clip-path="url(#clipPath)"
       title="exp(x+4)"
       d="m 102.85714,-6502.2555 c 0.58724,-27.9518 1.17448,-56.0691 1.76172,-84.354 0.58724,-28.2849 1.17447,-56.738 1.76171,-85.3602 0.58724,-28.6223 1.17448,-57.4147 1.76172,-86.3784 0.58724,-28.9637 1.17448,-58.0996 1.76172,-87.4088 0.58724,-29.3091 1.17447,-58.7926 1.76171,-88.4514 0.58724,-29.6587 1.17448,-59.4939 1.76172,-89.5064 0.58724,-30.0126 1.17448,-60.2036 1.76172,-90.5741 0.58723,-30.3706 1.17447,-60.9217 1.76171,-91.6545 0.58724,-30.7329 1.17448,-61.6484 1.76172,-92.7478 0.58724,-31.0994 1.17448,-62.3838 1.76172,-93.8542 0.58723,-31.4703 1.17447,-63.1278 1.76171,-94.9736 0.58724,-31.8458 1.17448,-63.8809 1.76172,-96.1065 0.58724,-32.2256 1.17448,-64.6429 1.76172,-97.2529 0.58723,-32.61 1.17447,-65.414 1.76171,-98.413 0.58724,-32.999 1.17448,-66.1942 1.76172,-99.5868 0.58724,-33.3926 1.17448,-66.9838 1.76171,-100.7748 0.58724,-33.7909 1.17448,-67.7828 1.76172,-101.9768 0.58724,-34.194 1.17448,-68.5913 1.76172,-103.1932 0.58724,-34.6019 1.17448,-69.4096 1.76171,-104.4242 0.58724,-35.0146 1.17448,-70.2374 1.76172,-105.6697 0.58724,-35.4323 1.17448,-71.0753 1.76172,-106.9302 0.58724,-35.855 1.17448,-71.9231 1.76171,-108.2058 0.58724,-36.2826 1.17448,-72.781 1.76172,-109.4964 0.58724,-36.7154 1.17448,-73.6491 1.76172,-110.8025 0.58724,-37.1534 1.17448,-74.5277 1.76171,-112.1242 0.58724,-37.5965 1.17448,-75.4167 1.76172,-113.4617 0.58724,-38.045 1.17448,-76.3162 1.76172,-114.815 0.58724,-38.4988 1.17447,-77.2266 1.76171,-116.1846 0.58724,-38.9581 1.17448,-78.1478 1.76172,-117.5705 0.58724,-39.4228 1.17448,-79.0799 1.76172,-118.9729 0.58724,-39.893 1.17447,-80.0232 1.76171,-120.3921 0.58724,-40.3688 1.17448,-80.9777 1.76172,-121.8281 0.58724,-40.8504 1.17448,-81.9437 1.76172,-123.2813 0.58724,-41.3377 1.17447,-82.9211 1.76171,-124.7519 0.58724,-41.831 1.17448,-83.91 1.76172,-126.24 0.58724,-42.33 1.17448,-84.911 1.76172,-127.746 0.58724,-42.834 1.17447,-85.924 1.76171,-129.269 0.58724,-43.346 1.17448,-86.949 1.76172,-130.812 0.58724,-43.862 1.17448,-87.986 1.76172,-132.372 0.58723,-44.385 1.17447,-89.035 1.76171,-133.95 0.58724,-44.916 1.17448,-90.098 1.76172,-135.549 0.58724,-45.451 1.17448,-91.172 1.76172,-137.166 0.58723,-45.993 1.17447,-92.259 1.76171,-138.801 0.58724,-46.542 1.17448,-93.361 1.76172,-140.458 0.58724,-47.097 1.17448,-94.474 1.76172,-142.132 0.58723,-47.659 1.17447,-95.601 1.76171,-143.828 0.58724,-48.228 1.17448,-96.742 1.76172,-145.544 0.58724,-48.803 1.17448,-97.895 1.76171,-147.28 0.58724,-49.385 1.17448,-99.063 1.76172,-149.037 0.58724,-49.973 1.17448,-100.244 1.76172,-150.814 0.58724,-50.57 1.17448,-101.44 1.76171,-152.613 0.58724,-51.173 1.17448,-102.651 1.76172,-154.434 0.58724,-51.784 1.17448,-103.875 1.76172,-156.276 0.58724,-52.401 1.17448,-105.114 1.76171,-158.14 0.58724,-53.026 1.17448,-106.368 1.76172,-160.026 0.58724,-53.659 1.17448,-107.637 1.76172,-161.936 0.58724,-54.298 1.17448,-108.92 1.76171,-163.866 0.58724,-54.947 1.17448,-110.22 1.76172,-165.822 0.58724,-55.602 1.17448,-111.534 1.76172,-167.799 0.58724,-56.265 1.17447,-112.865 1.76171,-169.801 0.58724,-56.937 1.17448,-114.211 1.76172,-171.827 0.58724,-57.615 1.17448,-115.573 1.76172,-173.876 0.58724,-58.302 1.17447,-116.952 1.76171,-175.95 0.58724,-58.998 1.17448,-118.347 1.76172,-178.049 0.58724,-59.701 1.17448,-119.758 1.76172,-180.172 0.58724,-60.414 1.17447,-121.187 1.76171,-182.322 0.58724,-61.135 1.17448,-122.633 1.76172,-184.497 0.58724,-61.863 1.17448,-124.095 1.76172,-186.697 0.58724,-62.602 1.17447,-125.576 1.76171,-188.924 0.58724,-63.349 1.17448,-127.074 1.76172,-191.178 0.58724,-64.104 1.17448,-128.59 1.76172,-193.458 0.58723,-64.869 1.17447,-130.124 1.76171,-195.766 0.58724,-65.643 1.17448,-131.676 1.76172,-198.101 0.58724,-66.426 1.17448,-133.246 1.76172,-200.464 0.58723,-67.218 1.17447,-134.836 1.76171,-202.856 0.58724,-68.019 1.17448,-136.443 1.76172,-205.274 0.58724,-68.832 1.17448,-138.072 1.76172,-207.724 0.58723,-69.652 1.17447,-139.718 1.76171,-210.201 0.58724,-70.483 1.17448,-141.385 1.76172,-212.709 0.58724,-71.324 1.17448,-143.071 1.76171,-215.246 0.58724,-72.174 1.17448,-144.778 1.76172,-217.813 0.58724,-73.036 1.17448,-146.505 1.76172,-220.412 0.58724,-73.906 1.17448,-148.252 1.76171,-223.041 0.58724,-74.788 1.17448,-150.021 1.76172,-225.701 0.58724,-75.68 1.17448,-151.81 1.76172,-228.393 0.58724,-76.583 1.17448,-153.622 1.76171,-231.118 0.58724,-77.496 1.17448,-155.454 1.76172,-233.875 0.58724,-78.42 1.17448,-157.308 1.76172,-236.664 0.58724,-79.356 1.17448,-159.184 1.76171,-239.487 0.58724,-80.303 1.17448,-161.084 1.76172,-242.344 0.58724,-81.261 1.17448,-163.005 1.76172,-245.235 0.58724,-82.23 1.17447,-164.949 1.76171,-248.16 0.58724,-83.211 1.17448,-166.917 1.76172,-251.12 0.58724,-84.204 1.17448,-168.908 1.76172,-254.116 0.58724,-85.208 1.17447,-170.922 1.76171,-257.146 0.58724,-86.225 1.17448,-172.962 1.76172,-260.214 0.58724,-87.253 1.17448,-175.025 1.76172,-263.318 0.58724,-88.294 1.17447,-177.112 1.76171,-266.459 0.58724,-89.347 1.17448,-179.225 1.76172,-269.637 0.58724,-90.413 1.17448,-181.363 1.76172,-272.854 0.58723,-91.491 1.17447,-183.526 1.76171,-276.108 0.58724,-92.583 1.17448,-185.715 1.76172,-279.402 0.58724,-93.687 1.17448,-187.93 1.76172,-282.735 0.58723,-94.804 1.17447,-190.172 1.76171,-286.107 0.58724,-95.935 1.17448,-192.44 1.76172,-289.52 0.58724,-97.079 1.17448,-194.736 1.76172,-292.973 0.58723,-98.237 1.17447,-197.059 1.76171,-296.468 0.58724,-99.409 1.17448,-199.409 1.76172,-300.004 0.58724,-100.595 1.17448,-201.788 1.76172,-303.583 0.58723,-101.795 1.17447,-204.195 1.76171,-307.204 0.58724,-103.009 1.17448,-206.631 1.76172,-310.869 0.58724,-104.238 1.17448,-209.095 1.76171,-314.576 0.58724,-105.482 1.17448,-211.59 1.76172,-318.329 0.58724,-106.74 1.17448,-214.114 1.76172,-322.127 0.58724,-108.012 1.17448,-216.667 1.76171,-325.968 0.58724,-109.301 1.17448,-219.252 1.76172,-329.857 0.58724,-110.605 1.17448,-221.867 1.76172,-333.791 0.58724,-111.924 1.17448,-224.514 1.76171,-337.773 0.58724,-113.259 1.17448,-227.192 1.76172,-341.802 0.58724,-114.611 1.17448,-229.902 1.76172,-345.88 0.58724,-115.977 1.17448,-232.644 1.76171,-350.004 0.58724,-117.361 1.17448,-235.42 1.76172,-354.18 0.58724,-118.761 1.17448,-238.228 1.76172,-358.405 0.58724,-120.177 1.17447,-241.069 1.76171,-362.68 0.58724,-121.61 1.17448,-243.944 1.76172,-367.006 0.58724,-123.061 1.17448,-246.854 1.76172,-371.383 0.58724,-124.53 1.17447,-249.799 1.76171,-375.814 0.58724,-126.015 1.17448,-252.779 1.76172,-380.296 0.58724,-127.518 1.17448,-255.794 1.76172,-384.833 0.58724,-129.039 1.17447,-258.845 1.76171,-389.423 0.58724,-130.578 1.17448,-261.933 1.76172,-394.069 0.58724,-132.135 1.17448,-265.057 1.76172,-398.768 0.58723,-133.712 1.17447,-268.219 1.76171,-403.526 0.58724,-135.307 1.17448,-271.418 1.76172,-408.339 0.58724,-136.921 1.17448,-274.655 1.76172,-413.209 0.58723,-138.554 1.17447,-277.932 1.76171,-418.139 0.58724,-140.207 1.17448,-281.247 1.76172,-423.126 0.58724,-141.879 1.17448,-284.602 1.76172,-428.174 0.58723,-143.571 1.17447,-287.996 1.76171,-433.28 0.58724,-145.284 1.17448,-291.432 1.76172,-438.449 0.58724,-147.017 1.17448,-294.909 1.76172,-443.679 0.58723,-148.771 1.17447,-298.426 1.76171,-448.972 0.58724,-150.545 1.17448,-301.985 1.76172,-454.326 0.58724,-152.341 1.17448,-305.588 1.76171,-459.747 0.58724,-154.158 1.17448,-309.233 1.76172,-465.23 0.58724,-155.997 1.17448,-312.921 1.76172,-470.779 0.58724,-157.858 1.17448,-316.655 1.76171,-476.395 0.58724,-159.741 1.17448,-320.432 1.76172,-482.078 0.58724,-161.646 1.17448,-324.254 1.76172,-487.828 0.58724,-163.574 1.17448,-328.121 1.76171,-493.647 0.58724,-165.526 1.17448,-332.035 1.76172,-499.535 0.58724,-167.5 1.17448,-335.996 1.76172,-505.494 0.58724,-169.498 1.17448,-340.004 1.76171,-511.524 0.58724,-171.52 1.17448,-344.06 1.76172,-517.625 0.58724,-173.566 1.17448,-348.164 1.76172,-523.8 0.58724,-175.636 1.17447,-352.316 1.76171,-530.048 0.58724,-177.731 1.17448,-356.519 1.76172,-536.37 0.58724,-179.851 1.17448,-360.771 1.76172,-542.768 0.58724,-181.996 1.17447,-365.075 1.76171,-549.242 0.58724,-184.168 1.17448,-369.43 1.76172,-555.794 0.58724,-186.365 1.17448,-373.837 1.76172,-562.424 0.58724,-188.587 1.17447,-378.296 1.76171,-569.133 0.58724,-190.836 1.17448,-382.808 1.76172,-575.921 0.58724,-193.113 1.17448,-387.374 1.76172,-582.791 0.58723,-195.416 1.17447,-391.995 1.76171,-589.742 0.58724,-197.748 1.17448,-396.671 1.76172,-596.778 0.58724,-200.106 1.17448,-401.402 1.76172,-603.896 0.58723,-202.493 1.17447,-406.19 1.76171,-611.099 0.58724,-204.908 1.17448,-411.036 1.76172,-618.388 0.58724,-207.353 1.17448,-415.939 1.76172,-625.765 0.58723,-209.827 1.17447,-420.901 1.76171,-633.23 0.58724,-212.329 1.17448,-425.921 1.76172,-640.782 0.58724,-214.862 1.17448,-431.002 1.76172,-648.426 0.58723,-217.425 1.17447,-436.143 1.76171,-656.161 0.58724,-220.018 1.17448,-441.345 1.76172,-663.988 0.58724,-222.642 1.17448,-446.609 1.76171,-671.907 0.58724,-225.299 1.17448,-451.937 1.76172,-679.923 0.58724,-227.986 1.17448,-457.327 1.76172,-688.033 0.58724,-230.705 1.17448,-462.782 1.76171,-696.239 0.58724,-233.458 1.17448,-468.303 1.76172,-704.545 0.58724,-236.242 1.17448,-473.889 1.76172,-712.949 0.58724,-239.06 1.17448,-479.542 1.76171,-721.453 0.58724,-241.912 1.17448,-485.262 1.76172,-730.059 0.58724,-244.797 1.17448,-491.05 1.76172,-738.767 0.58724,-247.717 1.17447,-496.907 1.76171,-747.579 0.58724,-250.672 1.17448,-502.835 1.76172,-756.497 0.58724,-253.662 1.17448,-508.833 1.76172,-765.52 0.58724,-256.688 1.17447,-514.902 1.76171,-774.652 0.58724,-259.75 1.17448,-521.044 1.76172,-783.892 0.58724,-262.848 1.17448,-527.259 1.76172,-793.243 0.58724,-265.983 1.17447,-533.548 1.76171,-802.704 0.58724,-269.156 1.17448,-539.913 1.76172,-812.28 0.58724,-272.366 1.17448,-546.353 1.76172,-821.968 0.58724,-275.616 1.17447,-552.87 1.76171,-831.773 0.58724,-278.903 1.17448,-559.465 1.76172,-841.695 0.58724,-282.23 1.17448,-566.138 1.76172,-851.735 0.58723,-285.596 1.17447,-572.891 1.76171,-861.895 0.58724,-289.003 1.17448,-579.725 1.76172,-872.175 0.58724,-292.451 1.17448,-586.64 1.76172,-882.579 0.58723,-295.939 1.17447,-593.638 1.76171,-893.107 0.58724,-299.469 1.17448,-600.719 1.76172,-903.76 0.58724,-303.041 1.17448,-607.884 1.76172,-914.54 0.58723,-306.656 1.17447,-615.135 1.76171,-925.449 0.58724,-310.314 1.17448,-622.473 1.76172,-936.488 0.58724,-314.016 1.17448,-629.898 1.76172,-947.659 0.58723,-317.761 1.17447,-637.412 1.76171,-958.963 0.58724,-321.551 1.17448,-645.015 1.76172,-970.402 0.58724,-325.386 1.17448,-652.708 1.76171,-981.976 0.58724,-329.269 1.17448,-660.495 1.76172,-993.69 0.58724,-333.196 1.17448,-668.373 1.76172,-1005.544 0.58724,-337.17 1.17448,-676.345 1.76171,-1017.537 0.58724,-341.192 1.17448,-684.413 1.76172,-1029.675 0.58724,-345.262 1.17448,-692.577 1.76172,-1041.958 0.58724,-349.38 1.17448,-700.838 1.76171,-1054.386 0.58724,-353.547 1.17448,-709.198 1.76172,-1066.963 0.58724,-357.765 1.17448,-717.657 1.76172,-1079.69 0.58724,-362.032 1.17447,-726.218 1.76171,-1092.569 0.58724,-366.351 1.17448,-734.88 1.76172,-1105.601 0.58724,-370.721 1.17448,-743.647 1.76172,-1118.79 0.58724,-375.143 1.17447,-752.517 1.76171,-1132.134 0.58724,-379.618 1.17448,-761.494 1.76172,-1145.64 0.58724,-384.146 1.17448,-770.576 1.76172,-1159.304 0.58724,-388.728 1.17447,-779.768 1.76171,-1173.133 0.58724,-393.365 1.17448,-789.07 1.76172,-1187.123 0.58724,-398.06 1.17448,-798.49 1.76172,-1201.29 0.58724,-402.81 1.17447,-808.01 1.76171,-1215.62 0.58724,-407.61 1.17448,-817.64 1.76172,-1230.11 0.58724,-412.48 1.17448,-827.4 1.76172,-1244.79 0.58723,-417.4 1.17447,-837.27 1.76171,-1259.64 0.58724,-422.37 1.17448,-847.26 1.76172,-1274.66 0.58724,-427.41 1.17448,-857.36 1.76172,-1289.87 0.58723,-432.51 1.17447,-867.59 1.76171,-1305.26 0.58724,-437.66 1.17448,-877.93 1.76172,-1320.82 0.58724,-442.89 1.17448,-888.41 1.76172,-1336.58 0.58723,-448.17 1.17447,-899 1.76171,-1352.52 0.58724,-453.51 1.17448,-909.73 1.76172,-1368.65 0.58724,-458.93 1.17448,-920.58 1.76172,-1384.98 0.58723,-464.4 1.17447,-931.57 1.76171,-1401.5 0.58724,-469.94 1.17448,-942.68 1.76172,-1418.22 0.58724,-475.55 1.17448,-953.92 1.76171,-1435.14 0.58724,-481.22 1.17448,-965.29 1.76172,-1452.25 0.58724,-486.96 1.17448,-976.81 1.76172,-1469.58 0.58724,-492.76 1.17448,-988.46 1.76171,-1487.11 0.58724,-498.64 1.17448,-1000.25 1.76172,-1504.84 0.58724,-504.59 1.17448,-1012.18 1.76172,-1522.8 0.58724,-510.61 1.17448,-1024.25 1.76171,-1540.96 0.58724,-516.7 1.17448,-1036.47 1.76172,-1559.34 0.58724,-522.86 1.17448,-1048.83 1.76172,-1577.94 0.58724,-529.1 1.17447,-1061.35 1.76171,-1596.76 0.58724,-535.41 1.17448,-1074.01 1.76172,-1615.81 0.58724,-541.8 1.17448,-1086.82 1.76172,-1635.08 0.58724,-548.26 1.17447,-1099.79 1.76171,-1654.59 0.58724,-554.8 1.17448,-1112.9 1.76172,-1674.32"
       style="fill:#ffffff"
       inkscape:connector-curvature="0"
       sodipodi:nodetypes="cssssssssssssssssssssssssssssssssssssssssssssssssssssssssssssssssssssssssssssssssssssssssssssssssssssssssssssssssssssssssssssssssssssssssssssssssssssssssssssssssssssssssssssssssssssssssssssssssssssssssssssssssssssssssssssssssssssssssssssssssssssssssssssc" />
    <path
       style="fill:#000000;fill-rule:evenodd;stroke:#000000;stroke-width:0.85330236px;stroke-linecap:butt;stroke-linejoin:miter;stroke-opacity:1;marker-end:url(#Arrow1Mend)"
       d="m 206.87955,172.34616 196.56291,1.18688"
       id="path3353"
       inkscape:connector-curvature="0"
       inkscape:export-xdpi="90"
       inkscape:export-ydpi="90" />
    <path
       style="fill:none;fill-rule:evenodd;stroke:#000000;stroke-width:0.74762076px;stroke-linecap:butt;stroke-linejoin:miter;stroke-opacity:1;marker-start:url(#Arrow1Mstart)"
       d="m 224.25387,43.387496 0,138.329814"
       id="path3355"
       inkscape:connector-curvature="0"
       inkscape:export-xdpi="90"
       inkscape:export-ydpi="90" />
    <path
       style="fill:none;fill-rule:evenodd;stroke:#000000;stroke-width:0.68758827px;stroke-linecap:butt;stroke-linejoin:miter;stroke-opacity:1"
       d="M 248.58976,189.15616 394.16674,54.098537"
       id="path3357"
       inkscape:connector-curvature="0"
       inkscape:export-xdpi="90"
       inkscape:export-ydpi="90" />
    <path
       style="fill:none;fill-rule:evenodd;stroke:#000000;stroke-width:1.0664078px;stroke-linecap:butt;stroke-linejoin:miter;stroke-opacity:1"
       d="m 352.42736,45.250063 c 0,0 17.57961,88.717777 -98.88527,91.886277"
       id="path3385"
       inkscape:connector-curvature="0"
       inkscape:export-xdpi="90"
       inkscape:export-ydpi="90" />
    <path
       style="fill:none;fill-rule:evenodd;stroke:#000000;stroke-width:0.72558713px;stroke-linecap:butt;stroke-linejoin:miter;stroke-opacity:1"
       d="m 327.18531,107.78148 8.28946,9.26751"
       id="path3389"
       inkscape:connector-curvature="0"
       inkscape:export-xdpi="90"
       inkscape:export-ydpi="90" />
    <path
       style="fill:none;fill-rule:evenodd;stroke:#000000;stroke-width:0.82075644px;stroke-linecap:butt;stroke-linejoin:miter;stroke-opacity:1"
       d="m 282.03192,159.07732 c 0,0 14.40877,0.90642 7.58357,14.50271"
       id="path3393"
       inkscape:connector-curvature="0"
       inkscape:export-xdpi="90"
       inkscape:export-ydpi="90" />
    <text
       xml:space="preserve"
       style="font-style:normal;font-variant:normal;font-weight:normal;font-stretch:normal;font-size:20px;line-height:125%;font-family:Cambria;-inkscape-font-specification:'Cambria, Normal';text-align:start;letter-spacing:0px;word-spacing:0px;writing-mode:lr;text-anchor:start;fill:#000000;fill-opacity:1;stroke:none;stroke-width:1px;stroke-linecap:butt;stroke-linejoin:miter;stroke-opacity:1;"
       x="229.10715"
       y="50.576466"
       id="text4989"
       sodipodi:linespacing="125%"
       inkscape:export-xdpi="90"
       inkscape:export-ydpi="90"><tspan
         sodipodi:role="line"
         id="tspan4991"
         x="229.10715"
         y="50.576466"
         style="font-style:normal;font-variant:normal;font-weight:normal;font-stretch:normal;font-size:20px;line-height:125%;font-family:Cambria;-inkscape-font-specification:'Cambria, Normal';text-align:start;writing-mode:lr;text-anchor:start;">y</tspan></text>
    <text
       xml:space="preserve"
       style="font-style:normal;font-variant:normal;font-weight:normal;font-stretch:normal;font-size:20px;line-height:125%;font-family:Cambria;-inkscape-font-specification:'Cambria, Normal';text-align:start;letter-spacing:0px;word-spacing:0px;writing-mode:lr-tb;text-anchor:start;fill:#000000;fill-opacity:1;stroke:none;stroke-width:1px;stroke-linecap:butt;stroke-linejoin:miter;stroke-opacity:1"
       x="401.36975"
       y="168.89713"
       id="text5001"
       sodipodi:linespacing="125%"
       inkscape:export-xdpi="90"
       inkscape:export-ydpi="90"><tspan
         sodipodi:role="line"
         id="tspan5003"
         x="401.36975"
         y="168.89713">x</tspan></text>
    <text
       xml:space="preserve"
       style="font-style:normal;font-variant:normal;font-weight:normal;font-stretch:normal;font-size:30px;line-height:125%;font-family:'Blackadder ITC';-inkscape-font-specification:'Blackadder ITC, Normal';text-align:start;letter-spacing:0px;word-spacing:0px;writing-mode:lr-tb;text-anchor:start;fill:#000000;fill-opacity:1;stroke:none;stroke-width:1px;stroke-linecap:butt;stroke-linejoin:miter;stroke-opacity:1"
       x="294.28574"
       y="163.79076"
       id="text5005"
       sodipodi:linespacing="125%"
       inkscape:export-xdpi="90"
       inkscape:export-ydpi="90"><tspan
         sodipodi:role="line"
         id="tspan5007"
         x="294.28574"
         y="163.79076">a</tspan></text>
  </g>
</svg>
